M48
; DRILL file {KiCad 6.0.8-f2edbf62ab~116~ubuntu20.04.1} date Do 13 Okt 2022 01:57:36 CEST
; FORMAT={-:-/ absolute / inch / decimal}
; #@! TF.CreationDate,2022-10-13T01:57:36+02:00
; #@! TF.GenerationSoftware,Kicad,Pcbnew,6.0.8-f2edbf62ab~116~ubuntu20.04.1
; #@! TF.FileFunction,Plated,1,2,PTH
FMAT,2
INCH
; #@! TA.AperFunction,Plated,PTH,ViaDrill
T1C0.0157
; #@! TA.AperFunction,Plated,PTH,ComponentDrill
T2C0.0394
; #@! TA.AperFunction,Plated,PTH,ComponentDrill
T3C0.0402
; #@! TA.AperFunction,Plated,PTH,ComponentDrill
T4C0.0413
; #@! TA.AperFunction,Plated,PTH,ComponentDrill
T5C0.0469
; #@! TA.AperFunction,Plated,PTH,ComponentDrill
T6C0.1248
; #@! TA.AperFunction,Plated,PTH,ComponentDrill
T7C0.1693
%
G90
G05
T1
X3.9Y-2.775
X4.025Y-2.225
X4.05Y-2.125
X4.125Y-2.075
X4.15Y-2.35
X4.325Y-2.375
X4.425Y-2.175
X4.425Y-2.225
X4.425Y-3.625
X5.55Y-3.075
T2
X3.722Y-1.8864
X3.722Y-2.0636
X3.978Y-1.8864
X3.978Y-2.0636
X4.7815Y-2.1455
X4.7815Y-2.2455
X4.7815Y-2.3455
X4.7815Y-2.4455
X5.1Y-4.2114
X5.1Y-4.3886
X5.3559Y-4.2114
X5.3559Y-4.3886
X5.562Y-4.2114
X5.562Y-4.3886
X5.818Y-4.2114
X5.818Y-4.3886
X6.047Y-4.2114
X6.047Y-4.3886
X6.303Y-4.2114
X6.303Y-4.3886
T3
X3.45Y-3.1
X3.45Y-3.8
X3.55Y-3.1
X3.55Y-3.8
X3.65Y-3.1
X3.65Y-3.8
X3.75Y-3.1
X3.75Y-3.8
X3.85Y-3.1
X3.85Y-3.8
X3.95Y-3.1
X3.95Y-3.8
X4.05Y-3.1
X4.05Y-3.8
X4.15Y-3.1
X4.15Y-3.8
X4.25Y-3.1
X4.25Y-3.8
X4.35Y-3.1
X4.35Y-3.8
X4.45Y-3.1
X4.45Y-3.8
X4.55Y-3.1
X4.55Y-3.8
X4.65Y-3.1
X4.65Y-3.8
X4.75Y-3.1
X4.75Y-3.8
X4.85Y-3.1
X4.85Y-3.8
X4.95Y-3.1
X4.95Y-3.8
X5.05Y-3.1
X5.05Y-3.8
X5.15Y-3.1
X5.15Y-3.8
X5.25Y-3.1
X5.25Y-3.8
X5.3409Y-3.35
X5.3409Y-3.45
X5.3409Y-3.55
X5.35Y-3.1
X5.35Y-3.8
T4
X5.7717Y-3.3468
X5.7717Y-3.6736
X5.9902Y-3.2405
X6.2087Y-3.3468
X6.2245Y-3.646
T5
X3.35Y-2.575
X3.35Y-2.675
X3.35Y-2.775
X3.3508Y-2.275
X3.3508Y-2.375
T6
X5.7717Y-3.5102
X6.2087Y-3.5102
T7
X3.4Y-1.975
X3.4Y-4.35
X6.6Y-1.975
X6.6Y-4.35
T0
M30
