%TF.GenerationSoftware,KiCad,Pcbnew,6.0.8-f2edbf62ab~116~ubuntu20.04.1*%
%TF.CreationDate,2022-10-13T01:57:51+02:00*%
%TF.ProjectId,Louie_for_Pico,4c6f7569-655f-4666-9f72-5f5069636f2e,rev?*%
%TF.SameCoordinates,Original*%
%TF.FileFunction,Legend,Bot*%
%TF.FilePolarity,Positive*%
%FSLAX46Y46*%
G04 Gerber Fmt 4.6, Leading zero omitted, Abs format (unit mm)*
G04 Created by KiCad (PCBNEW 6.0.8-f2edbf62ab~116~ubuntu20.04.1) date 2022-10-13 01:57:51*
%MOMM*%
%LPD*%
G01*
G04 APERTURE LIST*
%ADD10C,0.150000*%
%ADD11C,0.010000*%
G04 APERTURE END LIST*
D10*
%TO.C,REF\u002A\u002A*%
X155940119Y-62639960D02*
X155844880Y-62639960D01*
X155749642Y-62687580D01*
X155702023Y-62735199D01*
X155654404Y-62830437D01*
X155606785Y-63020913D01*
X155606785Y-63259008D01*
X155654404Y-63449484D01*
X155702023Y-63544722D01*
X155749642Y-63592341D01*
X155844880Y-63639960D01*
X155940119Y-63639960D01*
X156035357Y-63592341D01*
X156082976Y-63544722D01*
X156130595Y-63449484D01*
X156178214Y-63259008D01*
X156178214Y-63020913D01*
X156130595Y-62830437D01*
X156082976Y-62735199D01*
X156035357Y-62687580D01*
X155940119Y-62639960D01*
X150655684Y-62741560D02*
X151131875Y-62741560D01*
X151179494Y-63217751D01*
X151131875Y-63170132D01*
X151036637Y-63122513D01*
X150798541Y-63122513D01*
X150703303Y-63170132D01*
X150655684Y-63217751D01*
X150608065Y-63312989D01*
X150608065Y-63551084D01*
X150655684Y-63646322D01*
X150703303Y-63693941D01*
X150798541Y-63741560D01*
X151036637Y-63741560D01*
X151131875Y-63693941D01*
X151179494Y-63646322D01*
X158755744Y-54941220D02*
X159231935Y-54941220D01*
X159279554Y-55417411D01*
X159231935Y-55369792D01*
X159136697Y-55322173D01*
X158898601Y-55322173D01*
X158803363Y-55369792D01*
X158755744Y-55417411D01*
X158708125Y-55512649D01*
X158708125Y-55750744D01*
X158755744Y-55845982D01*
X158803363Y-55893601D01*
X158898601Y-55941220D01*
X159136697Y-55941220D01*
X159231935Y-55893601D01*
X159279554Y-55845982D01*
X159041459Y-59840880D02*
X158946220Y-59840880D01*
X158850982Y-59888500D01*
X158803363Y-59936119D01*
X158755744Y-60031357D01*
X158708125Y-60221833D01*
X158708125Y-60459928D01*
X158755744Y-60650404D01*
X158803363Y-60745642D01*
X158850982Y-60793261D01*
X158946220Y-60840880D01*
X159041459Y-60840880D01*
X159136697Y-60793261D01*
X159184316Y-60745642D01*
X159231935Y-60650404D01*
X159279554Y-60459928D01*
X159279554Y-60221833D01*
X159231935Y-60031357D01*
X159184316Y-59936119D01*
X159136697Y-59888500D01*
X159041459Y-59840880D01*
X147416329Y-63540900D02*
X147987758Y-63540900D01*
X147702043Y-63540900D02*
X147702043Y-62540900D01*
X147797281Y-62683758D01*
X147892520Y-62778996D01*
X147987758Y-62826615D01*
X146797281Y-62540900D02*
X146702043Y-62540900D01*
X146606805Y-62588520D01*
X146559186Y-62636139D01*
X146511567Y-62731377D01*
X146463948Y-62921853D01*
X146463948Y-63159948D01*
X146511567Y-63350424D01*
X146559186Y-63445662D01*
X146606805Y-63493281D01*
X146702043Y-63540900D01*
X146797281Y-63540900D01*
X146892520Y-63493281D01*
X146940139Y-63445662D01*
X146987758Y-63350424D01*
X147035377Y-63159948D01*
X147035377Y-62921853D01*
X146987758Y-62731377D01*
X146940139Y-62636139D01*
X146892520Y-62588520D01*
X146797281Y-62540900D01*
X146035377Y-63540900D02*
X146035377Y-62874234D01*
X146035377Y-62969472D02*
X145987758Y-62921853D01*
X145892520Y-62874234D01*
X145749662Y-62874234D01*
X145654424Y-62921853D01*
X145606805Y-63017091D01*
X145606805Y-63540900D01*
X145606805Y-63017091D02*
X145559186Y-62921853D01*
X145463948Y-62874234D01*
X145321091Y-62874234D01*
X145225853Y-62921853D01*
X145178234Y-63017091D01*
X145178234Y-63540900D01*
X144702043Y-63540900D02*
X144702043Y-62874234D01*
X144702043Y-62969472D02*
X144654424Y-62921853D01*
X144559186Y-62874234D01*
X144416329Y-62874234D01*
X144321091Y-62921853D01*
X144273472Y-63017091D01*
X144273472Y-63540900D01*
X144273472Y-63017091D02*
X144225853Y-62921853D01*
X144130615Y-62874234D01*
X143987758Y-62874234D01*
X143892520Y-62921853D01*
X143844900Y-63017091D01*
X143844900Y-63540900D01*
X161797809Y-50744380D02*
X162369238Y-50744380D01*
X162083523Y-50744380D02*
X162083523Y-49744380D01*
X162178761Y-49887238D01*
X162274000Y-49982476D01*
X162369238Y-50030095D01*
X161178761Y-49744380D02*
X161083523Y-49744380D01*
X160988285Y-49792000D01*
X160940666Y-49839619D01*
X160893047Y-49934857D01*
X160845428Y-50125333D01*
X160845428Y-50363428D01*
X160893047Y-50553904D01*
X160940666Y-50649142D01*
X160988285Y-50696761D01*
X161083523Y-50744380D01*
X161178761Y-50744380D01*
X161274000Y-50696761D01*
X161321619Y-50649142D01*
X161369238Y-50553904D01*
X161416857Y-50363428D01*
X161416857Y-50125333D01*
X161369238Y-49934857D01*
X161321619Y-49839619D01*
X161274000Y-49792000D01*
X161178761Y-49744380D01*
X160416857Y-50744380D02*
X160416857Y-50077714D01*
X160416857Y-50172952D02*
X160369238Y-50125333D01*
X160274000Y-50077714D01*
X160131142Y-50077714D01*
X160035904Y-50125333D01*
X159988285Y-50220571D01*
X159988285Y-50744380D01*
X159988285Y-50220571D02*
X159940666Y-50125333D01*
X159845428Y-50077714D01*
X159702571Y-50077714D01*
X159607333Y-50125333D01*
X159559714Y-50220571D01*
X159559714Y-50744380D01*
X159083523Y-50744380D02*
X159083523Y-50077714D01*
X159083523Y-50172952D02*
X159035904Y-50125333D01*
X158940666Y-50077714D01*
X158797809Y-50077714D01*
X158702571Y-50125333D01*
X158654952Y-50220571D01*
X158654952Y-50744380D01*
X158654952Y-50220571D02*
X158607333Y-50125333D01*
X158512095Y-50077714D01*
X158369238Y-50077714D01*
X158274000Y-50125333D01*
X158226380Y-50220571D01*
X158226380Y-50744380D01*
X155892500Y-50388520D02*
X157891480Y-50388520D01*
X155892500Y-52387500D02*
X156893260Y-52387500D01*
X155892500Y-57388760D02*
X156893260Y-57388760D01*
X154891740Y-60388500D02*
X154891740Y-61389260D01*
X155892500Y-54389020D02*
X156893260Y-54389020D01*
X155892500Y-60388500D02*
X157891480Y-60388500D01*
X145892520Y-60388500D02*
X145892520Y-62387480D01*
X155892500Y-58389520D02*
X156893260Y-58389520D01*
X155892500Y-55387240D02*
X157891480Y-55387240D01*
X151892000Y-60388500D02*
X151892000Y-61389260D01*
X155892500Y-51389280D02*
X156893260Y-51389280D01*
X152892760Y-60388500D02*
X152892760Y-61389260D01*
X150891240Y-60388500D02*
X150891240Y-62387480D01*
X155892500Y-53388260D02*
X156893260Y-53388260D01*
X147891500Y-60388500D02*
X147891500Y-61389260D01*
X155892500Y-60388500D02*
X155892500Y-50388520D01*
X155892500Y-56388000D02*
X156893260Y-56388000D01*
X155892500Y-59387740D02*
X156893260Y-59387740D01*
X155892500Y-60388500D02*
X145892520Y-60388500D01*
X148892260Y-60388500D02*
X148892260Y-61389260D01*
X149893020Y-60388500D02*
X149893020Y-61389260D01*
X153893520Y-60388500D02*
X153893520Y-61389260D01*
X146893280Y-60388500D02*
X146893280Y-61389260D01*
X155892500Y-60388500D02*
X155892500Y-62387480D01*
G36*
X124719628Y-111000454D02*
G01*
X124716138Y-111182895D01*
X124711898Y-111338241D01*
X124706838Y-111468750D01*
X124700887Y-111576680D01*
X124693973Y-111664291D01*
X124686026Y-111733839D01*
X124676973Y-111787585D01*
X124666745Y-111827785D01*
X124655270Y-111856700D01*
X124642477Y-111876586D01*
X124628295Y-111889703D01*
X124612653Y-111898309D01*
X124595480Y-111904663D01*
X124576705Y-111911022D01*
X124556256Y-111919646D01*
X124544750Y-111923968D01*
X124523645Y-111928687D01*
X124492284Y-111933011D01*
X124448451Y-111936957D01*
X124389927Y-111940542D01*
X124314493Y-111943784D01*
X124219930Y-111946700D01*
X124104020Y-111949307D01*
X123964545Y-111951622D01*
X123799287Y-111953663D01*
X123606026Y-111955447D01*
X123382545Y-111956992D01*
X123126625Y-111958315D01*
X122836047Y-111959433D01*
X122508593Y-111960364D01*
X122142044Y-111961124D01*
X121734183Y-111961732D01*
X121282790Y-111962204D01*
X120785648Y-111962559D01*
X120240537Y-111962812D01*
X119645240Y-111962982D01*
X118997537Y-111963086D01*
X118792282Y-111963106D01*
X118158636Y-111963119D01*
X117576749Y-111963040D01*
X117044428Y-111962851D01*
X116559481Y-111962538D01*
X116119715Y-111962085D01*
X115722940Y-111961475D01*
X115366961Y-111960693D01*
X115049587Y-111959723D01*
X114768627Y-111958549D01*
X114521886Y-111957155D01*
X114307174Y-111955525D01*
X114122299Y-111953643D01*
X113965067Y-111951493D01*
X113833287Y-111949060D01*
X113724766Y-111946327D01*
X113637313Y-111943279D01*
X113568735Y-111939899D01*
X113516839Y-111936172D01*
X113479434Y-111932082D01*
X113454327Y-111927612D01*
X113439327Y-111922748D01*
X113434554Y-111920583D01*
X113415016Y-111913472D01*
X113397099Y-111908279D01*
X113380730Y-111902742D01*
X113365836Y-111894599D01*
X113352346Y-111881590D01*
X113340186Y-111861452D01*
X113329283Y-111831924D01*
X113319566Y-111790744D01*
X113310961Y-111735650D01*
X113303395Y-111664381D01*
X113296797Y-111574675D01*
X113291093Y-111464270D01*
X113286211Y-111330906D01*
X113282078Y-111172319D01*
X113278622Y-110986249D01*
X113275769Y-110770434D01*
X113274833Y-110670497D01*
X113995046Y-110670497D01*
X113995836Y-110680067D01*
X114010323Y-110687823D01*
X114043055Y-110693955D01*
X114098578Y-110698652D01*
X114181441Y-110702106D01*
X114296191Y-110704506D01*
X114447375Y-110706041D01*
X114639540Y-110706903D01*
X114877234Y-110707280D01*
X115165004Y-110707364D01*
X116370441Y-110707364D01*
X116166635Y-110338654D01*
X116166635Y-104985536D01*
X116370441Y-104616826D01*
X114215764Y-104616826D01*
X114207974Y-107450428D01*
X114200184Y-110284031D01*
X114123801Y-110447161D01*
X114083530Y-110528016D01*
X114037929Y-110609013D01*
X114003492Y-110658827D01*
X114003406Y-110658923D01*
X113995046Y-110670497D01*
X113274833Y-110670497D01*
X113273448Y-110522612D01*
X113271586Y-110240521D01*
X113270109Y-109921901D01*
X113268946Y-109564488D01*
X113268024Y-109166023D01*
X113267269Y-108724242D01*
X113266610Y-108236884D01*
X113265974Y-107701688D01*
X113265288Y-107116393D01*
X113264480Y-106478735D01*
X113264375Y-106401539D01*
X113263474Y-105767923D01*
X113262612Y-105186404D01*
X113261853Y-104654720D01*
X113261261Y-104170608D01*
X113260900Y-103731806D01*
X113260833Y-103336052D01*
X113261125Y-102981081D01*
X113261840Y-102664633D01*
X113263040Y-102384443D01*
X113264790Y-102138250D01*
X113267153Y-101923790D01*
X113270195Y-101738802D01*
X113273977Y-101581022D01*
X113278564Y-101448188D01*
X113284020Y-101338036D01*
X113290409Y-101248305D01*
X113297794Y-101176732D01*
X113306239Y-101121053D01*
X113315808Y-101079007D01*
X113326565Y-101048331D01*
X113338574Y-101026761D01*
X113351898Y-101012036D01*
X113366601Y-101001893D01*
X113382748Y-100994068D01*
X113400401Y-100986300D01*
X113419624Y-100976325D01*
X113425249Y-100973146D01*
X113510363Y-100942379D01*
X113603538Y-100929734D01*
X113708571Y-100929738D01*
X113710321Y-101168712D01*
X113710765Y-101196212D01*
X113744149Y-101475749D01*
X113829177Y-101738767D01*
X113964666Y-101982482D01*
X114149436Y-102204107D01*
X114248589Y-102294499D01*
X114469362Y-102444323D01*
X114710246Y-102548803D01*
X114964226Y-102607882D01*
X115224286Y-102621505D01*
X115483410Y-102589616D01*
X115734583Y-102512158D01*
X115941059Y-102404568D01*
X116854891Y-102404568D01*
X116975064Y-102491027D01*
X117076698Y-102572286D01*
X117219909Y-102704826D01*
X117382345Y-102870936D01*
X117557856Y-103064286D01*
X117740291Y-103278547D01*
X117787272Y-103335844D01*
X117867259Y-103434116D01*
X117971814Y-103563045D01*
X118097472Y-103718327D01*
X118240770Y-103895660D01*
X118398243Y-104090739D01*
X118566429Y-104299263D01*
X118741862Y-104516927D01*
X118822328Y-104616826D01*
X118921080Y-104739429D01*
X119100619Y-104962465D01*
X119277014Y-105181733D01*
X119446802Y-105392928D01*
X119606519Y-105591749D01*
X119752701Y-105773890D01*
X119881885Y-105935051D01*
X119990606Y-106070926D01*
X120075401Y-106177214D01*
X120132806Y-106249610D01*
X120159357Y-106283812D01*
X120161548Y-106296665D01*
X120154259Y-106321110D01*
X120135370Y-106359569D01*
X120102996Y-106414768D01*
X120055250Y-106489437D01*
X119990248Y-106586302D01*
X119906105Y-106708092D01*
X119800934Y-106857536D01*
X119672850Y-107037360D01*
X119519968Y-107250293D01*
X119340401Y-107499063D01*
X119132265Y-107786398D01*
X118893675Y-108115026D01*
X118703568Y-108376610D01*
X118471633Y-108695503D01*
X118267615Y-108975552D01*
X118089144Y-109219866D01*
X117933845Y-109431552D01*
X117799347Y-109613720D01*
X117683276Y-109769476D01*
X117583260Y-109901929D01*
X117496927Y-110014187D01*
X117421904Y-110109357D01*
X117355818Y-110190549D01*
X117296297Y-110260870D01*
X117240969Y-110323428D01*
X117187459Y-110381331D01*
X117133397Y-110437688D01*
X117076409Y-110495606D01*
X116866398Y-110707364D01*
X118278129Y-110707421D01*
X119689861Y-110707478D01*
X119680990Y-110536380D01*
X119680560Y-110527783D01*
X119678876Y-110459383D01*
X119682068Y-110393848D01*
X119692271Y-110327586D01*
X119711621Y-110257009D01*
X119742252Y-110178526D01*
X119786300Y-110088547D01*
X119845900Y-109983484D01*
X119923188Y-109859746D01*
X120020298Y-109713743D01*
X120139366Y-109541886D01*
X120282528Y-109340584D01*
X120451918Y-109106249D01*
X120649672Y-108835289D01*
X120877926Y-108524116D01*
X121683625Y-107427229D01*
X121690723Y-108699038D01*
X121691352Y-108817672D01*
X121692462Y-109137218D01*
X121691957Y-109409013D01*
X121689245Y-109638201D01*
X121683730Y-109829926D01*
X121674819Y-109989331D01*
X121661918Y-110121559D01*
X121644433Y-110231754D01*
X121621770Y-110325059D01*
X121593334Y-110406618D01*
X121558533Y-110481575D01*
X121516771Y-110555074D01*
X121467454Y-110632256D01*
X121417880Y-110707364D01*
X123994254Y-110707364D01*
X123927704Y-110618600D01*
X123917282Y-110604558D01*
X123833957Y-110475856D01*
X123776517Y-110345753D01*
X123738798Y-110196674D01*
X123714638Y-110011047D01*
X123713975Y-110002955D01*
X123710469Y-109926389D01*
X123707303Y-109798641D01*
X123704492Y-109622633D01*
X123702049Y-109401283D01*
X123699987Y-109137510D01*
X123698322Y-108834233D01*
X123697065Y-108494371D01*
X123696231Y-108120844D01*
X123695834Y-107716570D01*
X123695887Y-107284468D01*
X123696405Y-106827459D01*
X123697401Y-106348460D01*
X123698455Y-105918797D01*
X123699583Y-105451100D01*
X123700694Y-105032649D01*
X123701926Y-104660515D01*
X123703420Y-104331764D01*
X123705315Y-104043465D01*
X123707750Y-103792687D01*
X123710864Y-103576499D01*
X123714797Y-103391967D01*
X123719689Y-103236161D01*
X123725679Y-103106149D01*
X123732906Y-102999000D01*
X123741509Y-102911781D01*
X123751629Y-102841561D01*
X123763404Y-102785409D01*
X123776974Y-102740392D01*
X123792479Y-102703580D01*
X123810057Y-102672039D01*
X123829848Y-102642840D01*
X123851992Y-102613050D01*
X123876628Y-102579737D01*
X123900457Y-102546354D01*
X123946513Y-102480349D01*
X123974101Y-102438708D01*
X123974767Y-102436964D01*
X123965134Y-102429089D01*
X123931141Y-102422519D01*
X123869004Y-102417151D01*
X123774941Y-102412886D01*
X123645169Y-102409623D01*
X123475907Y-102407260D01*
X123263370Y-102405697D01*
X123003778Y-102404834D01*
X122693346Y-102404568D01*
X121391995Y-102404568D01*
X121460580Y-102486078D01*
X121500330Y-102542060D01*
X121566495Y-102674056D01*
X121624477Y-102838223D01*
X121668731Y-103020326D01*
X121671552Y-103037614D01*
X121679944Y-103128750D01*
X121686300Y-103269599D01*
X121690635Y-103461136D01*
X121692967Y-103704336D01*
X121693313Y-104000175D01*
X121691689Y-104349628D01*
X121683625Y-105516301D01*
X120850614Y-104462889D01*
X120826755Y-104432715D01*
X120615511Y-104165291D01*
X120435166Y-103936266D01*
X120282848Y-103741748D01*
X120155689Y-103577841D01*
X120050816Y-103440653D01*
X119965362Y-103326287D01*
X119896454Y-103230852D01*
X119841224Y-103150451D01*
X119796802Y-103081192D01*
X119760316Y-103019180D01*
X119728897Y-102960522D01*
X119699675Y-102901322D01*
X119654721Y-102796532D01*
X119625681Y-102685989D01*
X119617957Y-102566752D01*
X119618733Y-102404568D01*
X116854891Y-102404568D01*
X115941059Y-102404568D01*
X115970788Y-102389077D01*
X116185011Y-102220316D01*
X116244563Y-102160820D01*
X116420579Y-101940530D01*
X116545477Y-101701465D01*
X116619925Y-101442082D01*
X116644592Y-101160840D01*
X116644592Y-100929729D01*
X120565196Y-100929729D01*
X120810137Y-100929719D01*
X121336339Y-100929647D01*
X121811687Y-100929596D01*
X122238811Y-100929667D01*
X122620338Y-100929966D01*
X122958897Y-100930597D01*
X123257117Y-100931662D01*
X123517626Y-100933267D01*
X123743054Y-100935515D01*
X123936028Y-100938510D01*
X124099177Y-100942356D01*
X124235131Y-100947156D01*
X124346517Y-100953016D01*
X124435964Y-100960038D01*
X124506101Y-100968327D01*
X124559556Y-100977986D01*
X124598958Y-100989120D01*
X124626936Y-101001832D01*
X124646119Y-101016227D01*
X124659134Y-101032407D01*
X124668611Y-101050478D01*
X124677178Y-101070543D01*
X124687463Y-101092706D01*
X124687648Y-101093068D01*
X124692642Y-101107576D01*
X124697223Y-101131870D01*
X124701408Y-101168190D01*
X124705214Y-101218780D01*
X124708660Y-101285881D01*
X124711762Y-101371735D01*
X124714538Y-101478584D01*
X124717006Y-101608670D01*
X124719181Y-101764234D01*
X124721083Y-101947519D01*
X124722729Y-102160767D01*
X124724135Y-102406219D01*
X124725319Y-102686118D01*
X124726299Y-103002705D01*
X124727091Y-103358222D01*
X124727715Y-103754911D01*
X124728185Y-104195015D01*
X124728521Y-104680774D01*
X124728740Y-105214431D01*
X124728858Y-105798228D01*
X124728893Y-106434407D01*
X124728895Y-106559385D01*
X124728955Y-107188934D01*
X124729049Y-107766544D01*
X124729104Y-108294474D01*
X124729049Y-108774983D01*
X124728815Y-109210329D01*
X124728328Y-109602770D01*
X124727518Y-109954565D01*
X124726314Y-110267973D01*
X124724645Y-110545251D01*
X124723176Y-110707364D01*
X124722440Y-110788659D01*
X124719628Y-111000454D01*
G37*
D11*
X124719628Y-111000454D02*
X124716138Y-111182895D01*
X124711898Y-111338241D01*
X124706838Y-111468750D01*
X124700887Y-111576680D01*
X124693973Y-111664291D01*
X124686026Y-111733839D01*
X124676973Y-111787585D01*
X124666745Y-111827785D01*
X124655270Y-111856700D01*
X124642477Y-111876586D01*
X124628295Y-111889703D01*
X124612653Y-111898309D01*
X124595480Y-111904663D01*
X124576705Y-111911022D01*
X124556256Y-111919646D01*
X124544750Y-111923968D01*
X124523645Y-111928687D01*
X124492284Y-111933011D01*
X124448451Y-111936957D01*
X124389927Y-111940542D01*
X124314493Y-111943784D01*
X124219930Y-111946700D01*
X124104020Y-111949307D01*
X123964545Y-111951622D01*
X123799287Y-111953663D01*
X123606026Y-111955447D01*
X123382545Y-111956992D01*
X123126625Y-111958315D01*
X122836047Y-111959433D01*
X122508593Y-111960364D01*
X122142044Y-111961124D01*
X121734183Y-111961732D01*
X121282790Y-111962204D01*
X120785648Y-111962559D01*
X120240537Y-111962812D01*
X119645240Y-111962982D01*
X118997537Y-111963086D01*
X118792282Y-111963106D01*
X118158636Y-111963119D01*
X117576749Y-111963040D01*
X117044428Y-111962851D01*
X116559481Y-111962538D01*
X116119715Y-111962085D01*
X115722940Y-111961475D01*
X115366961Y-111960693D01*
X115049587Y-111959723D01*
X114768627Y-111958549D01*
X114521886Y-111957155D01*
X114307174Y-111955525D01*
X114122299Y-111953643D01*
X113965067Y-111951493D01*
X113833287Y-111949060D01*
X113724766Y-111946327D01*
X113637313Y-111943279D01*
X113568735Y-111939899D01*
X113516839Y-111936172D01*
X113479434Y-111932082D01*
X113454327Y-111927612D01*
X113439327Y-111922748D01*
X113434554Y-111920583D01*
X113415016Y-111913472D01*
X113397099Y-111908279D01*
X113380730Y-111902742D01*
X113365836Y-111894599D01*
X113352346Y-111881590D01*
X113340186Y-111861452D01*
X113329283Y-111831924D01*
X113319566Y-111790744D01*
X113310961Y-111735650D01*
X113303395Y-111664381D01*
X113296797Y-111574675D01*
X113291093Y-111464270D01*
X113286211Y-111330906D01*
X113282078Y-111172319D01*
X113278622Y-110986249D01*
X113275769Y-110770434D01*
X113274833Y-110670497D01*
X113995046Y-110670497D01*
X113995836Y-110680067D01*
X114010323Y-110687823D01*
X114043055Y-110693955D01*
X114098578Y-110698652D01*
X114181441Y-110702106D01*
X114296191Y-110704506D01*
X114447375Y-110706041D01*
X114639540Y-110706903D01*
X114877234Y-110707280D01*
X115165004Y-110707364D01*
X116370441Y-110707364D01*
X116166635Y-110338654D01*
X116166635Y-104985536D01*
X116370441Y-104616826D01*
X114215764Y-104616826D01*
X114207974Y-107450428D01*
X114200184Y-110284031D01*
X114123801Y-110447161D01*
X114083530Y-110528016D01*
X114037929Y-110609013D01*
X114003492Y-110658827D01*
X114003406Y-110658923D01*
X113995046Y-110670497D01*
X113274833Y-110670497D01*
X113273448Y-110522612D01*
X113271586Y-110240521D01*
X113270109Y-109921901D01*
X113268946Y-109564488D01*
X113268024Y-109166023D01*
X113267269Y-108724242D01*
X113266610Y-108236884D01*
X113265974Y-107701688D01*
X113265288Y-107116393D01*
X113264480Y-106478735D01*
X113264375Y-106401539D01*
X113263474Y-105767923D01*
X113262612Y-105186404D01*
X113261853Y-104654720D01*
X113261261Y-104170608D01*
X113260900Y-103731806D01*
X113260833Y-103336052D01*
X113261125Y-102981081D01*
X113261840Y-102664633D01*
X113263040Y-102384443D01*
X113264790Y-102138250D01*
X113267153Y-101923790D01*
X113270195Y-101738802D01*
X113273977Y-101581022D01*
X113278564Y-101448188D01*
X113284020Y-101338036D01*
X113290409Y-101248305D01*
X113297794Y-101176732D01*
X113306239Y-101121053D01*
X113315808Y-101079007D01*
X113326565Y-101048331D01*
X113338574Y-101026761D01*
X113351898Y-101012036D01*
X113366601Y-101001893D01*
X113382748Y-100994068D01*
X113400401Y-100986300D01*
X113419624Y-100976325D01*
X113425249Y-100973146D01*
X113510363Y-100942379D01*
X113603538Y-100929734D01*
X113708571Y-100929738D01*
X113710321Y-101168712D01*
X113710765Y-101196212D01*
X113744149Y-101475749D01*
X113829177Y-101738767D01*
X113964666Y-101982482D01*
X114149436Y-102204107D01*
X114248589Y-102294499D01*
X114469362Y-102444323D01*
X114710246Y-102548803D01*
X114964226Y-102607882D01*
X115224286Y-102621505D01*
X115483410Y-102589616D01*
X115734583Y-102512158D01*
X115941059Y-102404568D01*
X116854891Y-102404568D01*
X116975064Y-102491027D01*
X117076698Y-102572286D01*
X117219909Y-102704826D01*
X117382345Y-102870936D01*
X117557856Y-103064286D01*
X117740291Y-103278547D01*
X117787272Y-103335844D01*
X117867259Y-103434116D01*
X117971814Y-103563045D01*
X118097472Y-103718327D01*
X118240770Y-103895660D01*
X118398243Y-104090739D01*
X118566429Y-104299263D01*
X118741862Y-104516927D01*
X118822328Y-104616826D01*
X118921080Y-104739429D01*
X119100619Y-104962465D01*
X119277014Y-105181733D01*
X119446802Y-105392928D01*
X119606519Y-105591749D01*
X119752701Y-105773890D01*
X119881885Y-105935051D01*
X119990606Y-106070926D01*
X120075401Y-106177214D01*
X120132806Y-106249610D01*
X120159357Y-106283812D01*
X120161548Y-106296665D01*
X120154259Y-106321110D01*
X120135370Y-106359569D01*
X120102996Y-106414768D01*
X120055250Y-106489437D01*
X119990248Y-106586302D01*
X119906105Y-106708092D01*
X119800934Y-106857536D01*
X119672850Y-107037360D01*
X119519968Y-107250293D01*
X119340401Y-107499063D01*
X119132265Y-107786398D01*
X118893675Y-108115026D01*
X118703568Y-108376610D01*
X118471633Y-108695503D01*
X118267615Y-108975552D01*
X118089144Y-109219866D01*
X117933845Y-109431552D01*
X117799347Y-109613720D01*
X117683276Y-109769476D01*
X117583260Y-109901929D01*
X117496927Y-110014187D01*
X117421904Y-110109357D01*
X117355818Y-110190549D01*
X117296297Y-110260870D01*
X117240969Y-110323428D01*
X117187459Y-110381331D01*
X117133397Y-110437688D01*
X117076409Y-110495606D01*
X116866398Y-110707364D01*
X118278129Y-110707421D01*
X119689861Y-110707478D01*
X119680990Y-110536380D01*
X119680560Y-110527783D01*
X119678876Y-110459383D01*
X119682068Y-110393848D01*
X119692271Y-110327586D01*
X119711621Y-110257009D01*
X119742252Y-110178526D01*
X119786300Y-110088547D01*
X119845900Y-109983484D01*
X119923188Y-109859746D01*
X120020298Y-109713743D01*
X120139366Y-109541886D01*
X120282528Y-109340584D01*
X120451918Y-109106249D01*
X120649672Y-108835289D01*
X120877926Y-108524116D01*
X121683625Y-107427229D01*
X121690723Y-108699038D01*
X121691352Y-108817672D01*
X121692462Y-109137218D01*
X121691957Y-109409013D01*
X121689245Y-109638201D01*
X121683730Y-109829926D01*
X121674819Y-109989331D01*
X121661918Y-110121559D01*
X121644433Y-110231754D01*
X121621770Y-110325059D01*
X121593334Y-110406618D01*
X121558533Y-110481575D01*
X121516771Y-110555074D01*
X121467454Y-110632256D01*
X121417880Y-110707364D01*
X123994254Y-110707364D01*
X123927704Y-110618600D01*
X123917282Y-110604558D01*
X123833957Y-110475856D01*
X123776517Y-110345753D01*
X123738798Y-110196674D01*
X123714638Y-110011047D01*
X123713975Y-110002955D01*
X123710469Y-109926389D01*
X123707303Y-109798641D01*
X123704492Y-109622633D01*
X123702049Y-109401283D01*
X123699987Y-109137510D01*
X123698322Y-108834233D01*
X123697065Y-108494371D01*
X123696231Y-108120844D01*
X123695834Y-107716570D01*
X123695887Y-107284468D01*
X123696405Y-106827459D01*
X123697401Y-106348460D01*
X123698455Y-105918797D01*
X123699583Y-105451100D01*
X123700694Y-105032649D01*
X123701926Y-104660515D01*
X123703420Y-104331764D01*
X123705315Y-104043465D01*
X123707750Y-103792687D01*
X123710864Y-103576499D01*
X123714797Y-103391967D01*
X123719689Y-103236161D01*
X123725679Y-103106149D01*
X123732906Y-102999000D01*
X123741509Y-102911781D01*
X123751629Y-102841561D01*
X123763404Y-102785409D01*
X123776974Y-102740392D01*
X123792479Y-102703580D01*
X123810057Y-102672039D01*
X123829848Y-102642840D01*
X123851992Y-102613050D01*
X123876628Y-102579737D01*
X123900457Y-102546354D01*
X123946513Y-102480349D01*
X123974101Y-102438708D01*
X123974767Y-102436964D01*
X123965134Y-102429089D01*
X123931141Y-102422519D01*
X123869004Y-102417151D01*
X123774941Y-102412886D01*
X123645169Y-102409623D01*
X123475907Y-102407260D01*
X123263370Y-102405697D01*
X123003778Y-102404834D01*
X122693346Y-102404568D01*
X121391995Y-102404568D01*
X121460580Y-102486078D01*
X121500330Y-102542060D01*
X121566495Y-102674056D01*
X121624477Y-102838223D01*
X121668731Y-103020326D01*
X121671552Y-103037614D01*
X121679944Y-103128750D01*
X121686300Y-103269599D01*
X121690635Y-103461136D01*
X121692967Y-103704336D01*
X121693313Y-104000175D01*
X121691689Y-104349628D01*
X121683625Y-105516301D01*
X120850614Y-104462889D01*
X120826755Y-104432715D01*
X120615511Y-104165291D01*
X120435166Y-103936266D01*
X120282848Y-103741748D01*
X120155689Y-103577841D01*
X120050816Y-103440653D01*
X119965362Y-103326287D01*
X119896454Y-103230852D01*
X119841224Y-103150451D01*
X119796802Y-103081192D01*
X119760316Y-103019180D01*
X119728897Y-102960522D01*
X119699675Y-102901322D01*
X119654721Y-102796532D01*
X119625681Y-102685989D01*
X119617957Y-102566752D01*
X119618733Y-102404568D01*
X116854891Y-102404568D01*
X115941059Y-102404568D01*
X115970788Y-102389077D01*
X116185011Y-102220316D01*
X116244563Y-102160820D01*
X116420579Y-101940530D01*
X116545477Y-101701465D01*
X116619925Y-101442082D01*
X116644592Y-101160840D01*
X116644592Y-100929729D01*
X120565196Y-100929729D01*
X120810137Y-100929719D01*
X121336339Y-100929647D01*
X121811687Y-100929596D01*
X122238811Y-100929667D01*
X122620338Y-100929966D01*
X122958897Y-100930597D01*
X123257117Y-100931662D01*
X123517626Y-100933267D01*
X123743054Y-100935515D01*
X123936028Y-100938510D01*
X124099177Y-100942356D01*
X124235131Y-100947156D01*
X124346517Y-100953016D01*
X124435964Y-100960038D01*
X124506101Y-100968327D01*
X124559556Y-100977986D01*
X124598958Y-100989120D01*
X124626936Y-101001832D01*
X124646119Y-101016227D01*
X124659134Y-101032407D01*
X124668611Y-101050478D01*
X124677178Y-101070543D01*
X124687463Y-101092706D01*
X124687648Y-101093068D01*
X124692642Y-101107576D01*
X124697223Y-101131870D01*
X124701408Y-101168190D01*
X124705214Y-101218780D01*
X124708660Y-101285881D01*
X124711762Y-101371735D01*
X124714538Y-101478584D01*
X124717006Y-101608670D01*
X124719181Y-101764234D01*
X124721083Y-101947519D01*
X124722729Y-102160767D01*
X124724135Y-102406219D01*
X124725319Y-102686118D01*
X124726299Y-103002705D01*
X124727091Y-103358222D01*
X124727715Y-103754911D01*
X124728185Y-104195015D01*
X124728521Y-104680774D01*
X124728740Y-105214431D01*
X124728858Y-105798228D01*
X124728893Y-106434407D01*
X124728895Y-106559385D01*
X124728955Y-107188934D01*
X124729049Y-107766544D01*
X124729104Y-108294474D01*
X124729049Y-108774983D01*
X124728815Y-109210329D01*
X124728328Y-109602770D01*
X124727518Y-109954565D01*
X124726314Y-110267973D01*
X124724645Y-110545251D01*
X124723176Y-110707364D01*
X124722440Y-110788659D01*
X124719628Y-111000454D01*
G36*
X100957678Y-112884039D02*
G01*
X101009351Y-112915575D01*
X101062891Y-112958929D01*
X101062891Y-114259622D01*
X101009351Y-114302976D01*
X100946350Y-114338081D01*
X100874430Y-114339760D01*
X100811272Y-114298591D01*
X100803485Y-114289219D01*
X100792504Y-114270199D01*
X100784052Y-114242714D01*
X100777801Y-114201492D01*
X100773422Y-114141265D01*
X100770588Y-114056761D01*
X100768970Y-113942710D01*
X100768240Y-113793844D01*
X100768069Y-113604891D01*
X100768069Y-112958929D01*
X100821608Y-112915575D01*
X100869246Y-112885903D01*
X100915480Y-112872222D01*
X100957678Y-112884039D01*
G37*
X100957678Y-112884039D02*
X101009351Y-112915575D01*
X101062891Y-112958929D01*
X101062891Y-114259622D01*
X101009351Y-114302976D01*
X100946350Y-114338081D01*
X100874430Y-114339760D01*
X100811272Y-114298591D01*
X100803485Y-114289219D01*
X100792504Y-114270199D01*
X100784052Y-114242714D01*
X100777801Y-114201492D01*
X100773422Y-114141265D01*
X100770588Y-114056761D01*
X100768970Y-113942710D01*
X100768240Y-113793844D01*
X100768069Y-113604891D01*
X100768069Y-112958929D01*
X100821608Y-112915575D01*
X100869246Y-112885903D01*
X100915480Y-112872222D01*
X100957678Y-112884039D01*
G36*
X106387580Y-109061784D02*
G01*
X106361070Y-109266682D01*
X106321068Y-109437364D01*
X106257240Y-109612970D01*
X106109287Y-109902367D01*
X105920172Y-110156982D01*
X105691854Y-110375080D01*
X105426290Y-110554925D01*
X105125439Y-110694782D01*
X104791259Y-110792917D01*
X104654989Y-110815051D01*
X104460261Y-110830433D01*
X104248189Y-110833893D01*
X104036496Y-110825708D01*
X103842902Y-110806157D01*
X103685130Y-110775520D01*
X103605850Y-110751399D01*
X103425793Y-110680812D01*
X103242760Y-110591195D01*
X103075636Y-110492266D01*
X102943304Y-110393744D01*
X102941678Y-110392322D01*
X102869162Y-110330837D01*
X102813370Y-110287056D01*
X102786261Y-110270375D01*
X102783297Y-110274357D01*
X102776591Y-110317377D01*
X102771930Y-110397613D01*
X102770184Y-110502525D01*
X102770184Y-110734676D01*
X101745990Y-110734676D01*
X101718726Y-110734671D01*
X101490061Y-110734271D01*
X101280193Y-110733276D01*
X101095093Y-110731759D01*
X100940732Y-110729795D01*
X100823082Y-110727457D01*
X100748113Y-110724821D01*
X100721797Y-110721960D01*
X100722410Y-110719460D01*
X100739627Y-110682554D01*
X100775718Y-110613217D01*
X100824216Y-110523949D01*
X100926635Y-110338654D01*
X100941653Y-108509261D01*
X102879431Y-108509261D01*
X102880193Y-108653798D01*
X102883884Y-108805666D01*
X102891115Y-108915439D01*
X102902412Y-108990263D01*
X102918302Y-109037287D01*
X102938742Y-109070866D01*
X103015718Y-109162401D01*
X103118856Y-109257695D01*
X103231898Y-109342602D01*
X103338587Y-109402975D01*
X103397781Y-109425127D01*
X103534079Y-109454620D01*
X103712095Y-109469699D01*
X103899780Y-109467415D01*
X104078008Y-109436400D01*
X104226773Y-109372327D01*
X104355482Y-109272309D01*
X104391689Y-109235314D01*
X104485958Y-109109148D01*
X104536963Y-108973159D01*
X104552281Y-108809526D01*
X104548131Y-108723078D01*
X104507092Y-108545116D01*
X104420879Y-108392368D01*
X104287920Y-108263116D01*
X104106647Y-108155641D01*
X103875491Y-108068224D01*
X103782302Y-108045283D01*
X103669486Y-108029575D01*
X103527507Y-108020852D01*
X103343732Y-108017919D01*
X103313879Y-108017921D01*
X103176393Y-108019599D01*
X103058293Y-108023656D01*
X102971323Y-108029559D01*
X102927227Y-108036776D01*
X102922153Y-108039119D01*
X102905747Y-108053832D01*
X102894128Y-108083398D01*
X102886491Y-108135772D01*
X102882033Y-108218905D01*
X102879947Y-108340750D01*
X102879431Y-108509261D01*
X100941653Y-108509261D01*
X100942442Y-108413170D01*
X100944791Y-108132724D01*
X100948078Y-107775053D01*
X100951528Y-107464543D01*
X100955420Y-107196804D01*
X100960032Y-106967442D01*
X100965645Y-106772068D01*
X100972535Y-106606289D01*
X100980982Y-106465715D01*
X100991266Y-106345953D01*
X101003663Y-106242614D01*
X101018454Y-106151305D01*
X101035916Y-106067635D01*
X101056329Y-105987213D01*
X101079972Y-105905647D01*
X101107122Y-105818547D01*
X101214082Y-105545490D01*
X101360559Y-105293128D01*
X101542977Y-105077068D01*
X101763005Y-104896178D01*
X102022313Y-104749328D01*
X102322572Y-104635389D01*
X102665451Y-104553228D01*
X103052621Y-104501717D01*
X103187942Y-104491474D01*
X103415844Y-104483984D01*
X103641731Y-104490729D01*
X103876178Y-104512844D01*
X104129761Y-104551468D01*
X104413055Y-104607737D01*
X104736635Y-104682789D01*
X104811430Y-104700948D01*
X104999260Y-104745634D01*
X105177285Y-104786779D01*
X105334710Y-104821953D01*
X105460739Y-104848725D01*
X105544574Y-104864665D01*
X105737996Y-104896434D01*
X105466069Y-105555501D01*
X105398051Y-105720055D01*
X105331136Y-105881296D01*
X105273723Y-106018961D01*
X105228631Y-106126316D01*
X105198678Y-106196624D01*
X105186682Y-106223149D01*
X105184796Y-106223529D01*
X105150035Y-106211686D01*
X105081682Y-106181337D01*
X104992069Y-106137884D01*
X104805811Y-106053261D01*
X104549508Y-105960735D01*
X104287183Y-105889878D01*
X104029093Y-105842469D01*
X103785499Y-105820289D01*
X103566658Y-105825116D01*
X103382829Y-105858730D01*
X103254529Y-105912066D01*
X103108820Y-106021368D01*
X102996652Y-106169649D01*
X102921236Y-106352349D01*
X102885784Y-106564904D01*
X102873299Y-106760805D01*
X103525021Y-106762589D01*
X103744806Y-106764432D01*
X103987904Y-106770977D01*
X104195576Y-106783330D01*
X104378564Y-106802691D01*
X104547611Y-106830261D01*
X104713459Y-106867242D01*
X104886850Y-106914833D01*
X105146286Y-107005420D01*
X105451436Y-107154598D01*
X105719245Y-107337327D01*
X105947070Y-107551038D01*
X106132270Y-107793160D01*
X106272203Y-108061123D01*
X106364229Y-108352358D01*
X106378641Y-108430795D01*
X106397117Y-108624940D01*
X106399443Y-108809526D01*
X106399846Y-108841570D01*
X106387580Y-109061784D01*
G37*
X106387580Y-109061784D02*
X106361070Y-109266682D01*
X106321068Y-109437364D01*
X106257240Y-109612970D01*
X106109287Y-109902367D01*
X105920172Y-110156982D01*
X105691854Y-110375080D01*
X105426290Y-110554925D01*
X105125439Y-110694782D01*
X104791259Y-110792917D01*
X104654989Y-110815051D01*
X104460261Y-110830433D01*
X104248189Y-110833893D01*
X104036496Y-110825708D01*
X103842902Y-110806157D01*
X103685130Y-110775520D01*
X103605850Y-110751399D01*
X103425793Y-110680812D01*
X103242760Y-110591195D01*
X103075636Y-110492266D01*
X102943304Y-110393744D01*
X102941678Y-110392322D01*
X102869162Y-110330837D01*
X102813370Y-110287056D01*
X102786261Y-110270375D01*
X102783297Y-110274357D01*
X102776591Y-110317377D01*
X102771930Y-110397613D01*
X102770184Y-110502525D01*
X102770184Y-110734676D01*
X101745990Y-110734676D01*
X101718726Y-110734671D01*
X101490061Y-110734271D01*
X101280193Y-110733276D01*
X101095093Y-110731759D01*
X100940732Y-110729795D01*
X100823082Y-110727457D01*
X100748113Y-110724821D01*
X100721797Y-110721960D01*
X100722410Y-110719460D01*
X100739627Y-110682554D01*
X100775718Y-110613217D01*
X100824216Y-110523949D01*
X100926635Y-110338654D01*
X100941653Y-108509261D01*
X102879431Y-108509261D01*
X102880193Y-108653798D01*
X102883884Y-108805666D01*
X102891115Y-108915439D01*
X102902412Y-108990263D01*
X102918302Y-109037287D01*
X102938742Y-109070866D01*
X103015718Y-109162401D01*
X103118856Y-109257695D01*
X103231898Y-109342602D01*
X103338587Y-109402975D01*
X103397781Y-109425127D01*
X103534079Y-109454620D01*
X103712095Y-109469699D01*
X103899780Y-109467415D01*
X104078008Y-109436400D01*
X104226773Y-109372327D01*
X104355482Y-109272309D01*
X104391689Y-109235314D01*
X104485958Y-109109148D01*
X104536963Y-108973159D01*
X104552281Y-108809526D01*
X104548131Y-108723078D01*
X104507092Y-108545116D01*
X104420879Y-108392368D01*
X104287920Y-108263116D01*
X104106647Y-108155641D01*
X103875491Y-108068224D01*
X103782302Y-108045283D01*
X103669486Y-108029575D01*
X103527507Y-108020852D01*
X103343732Y-108017919D01*
X103313879Y-108017921D01*
X103176393Y-108019599D01*
X103058293Y-108023656D01*
X102971323Y-108029559D01*
X102927227Y-108036776D01*
X102922153Y-108039119D01*
X102905747Y-108053832D01*
X102894128Y-108083398D01*
X102886491Y-108135772D01*
X102882033Y-108218905D01*
X102879947Y-108340750D01*
X102879431Y-108509261D01*
X100941653Y-108509261D01*
X100942442Y-108413170D01*
X100944791Y-108132724D01*
X100948078Y-107775053D01*
X100951528Y-107464543D01*
X100955420Y-107196804D01*
X100960032Y-106967442D01*
X100965645Y-106772068D01*
X100972535Y-106606289D01*
X100980982Y-106465715D01*
X100991266Y-106345953D01*
X101003663Y-106242614D01*
X101018454Y-106151305D01*
X101035916Y-106067635D01*
X101056329Y-105987213D01*
X101079972Y-105905647D01*
X101107122Y-105818547D01*
X101214082Y-105545490D01*
X101360559Y-105293128D01*
X101542977Y-105077068D01*
X101763005Y-104896178D01*
X102022313Y-104749328D01*
X102322572Y-104635389D01*
X102665451Y-104553228D01*
X103052621Y-104501717D01*
X103187942Y-104491474D01*
X103415844Y-104483984D01*
X103641731Y-104490729D01*
X103876178Y-104512844D01*
X104129761Y-104551468D01*
X104413055Y-104607737D01*
X104736635Y-104682789D01*
X104811430Y-104700948D01*
X104999260Y-104745634D01*
X105177285Y-104786779D01*
X105334710Y-104821953D01*
X105460739Y-104848725D01*
X105544574Y-104864665D01*
X105737996Y-104896434D01*
X105466069Y-105555501D01*
X105398051Y-105720055D01*
X105331136Y-105881296D01*
X105273723Y-106018961D01*
X105228631Y-106126316D01*
X105198678Y-106196624D01*
X105186682Y-106223149D01*
X105184796Y-106223529D01*
X105150035Y-106211686D01*
X105081682Y-106181337D01*
X104992069Y-106137884D01*
X104805811Y-106053261D01*
X104549508Y-105960735D01*
X104287183Y-105889878D01*
X104029093Y-105842469D01*
X103785499Y-105820289D01*
X103566658Y-105825116D01*
X103382829Y-105858730D01*
X103254529Y-105912066D01*
X103108820Y-106021368D01*
X102996652Y-106169649D01*
X102921236Y-106352349D01*
X102885784Y-106564904D01*
X102873299Y-106760805D01*
X103525021Y-106762589D01*
X103744806Y-106764432D01*
X103987904Y-106770977D01*
X104195576Y-106783330D01*
X104378564Y-106802691D01*
X104547611Y-106830261D01*
X104713459Y-106867242D01*
X104886850Y-106914833D01*
X105146286Y-107005420D01*
X105451436Y-107154598D01*
X105719245Y-107337327D01*
X105947070Y-107551038D01*
X106132270Y-107793160D01*
X106272203Y-108061123D01*
X106364229Y-108352358D01*
X106378641Y-108430795D01*
X106397117Y-108624940D01*
X106399443Y-108809526D01*
X106399846Y-108841570D01*
X106387580Y-109061784D01*
G36*
X119040704Y-112872254D02*
G01*
X119195586Y-112872640D01*
X119314005Y-112873815D01*
X119401568Y-112876208D01*
X119463882Y-112880251D01*
X119506557Y-112886374D01*
X119535198Y-112895009D01*
X119555414Y-112906584D01*
X119572813Y-112921532D01*
X119576398Y-112924909D01*
X119590951Y-112940054D01*
X119602285Y-112958170D01*
X119610804Y-112984556D01*
X119616909Y-113024509D01*
X119621002Y-113083328D01*
X119623486Y-113166311D01*
X119624763Y-113278757D01*
X119625234Y-113425963D01*
X119625301Y-113613229D01*
X119625228Y-113759457D01*
X119624729Y-113916507D01*
X119623450Y-114037473D01*
X119621045Y-114127632D01*
X119617166Y-114192259D01*
X119611464Y-114236630D01*
X119603592Y-114266022D01*
X119593201Y-114285711D01*
X119579944Y-114300972D01*
X119573246Y-114307354D01*
X119556126Y-114319630D01*
X119532015Y-114329021D01*
X119495432Y-114335912D01*
X119440895Y-114340688D01*
X119362925Y-114343733D01*
X119256041Y-114345431D01*
X119114761Y-114346169D01*
X118933605Y-114346329D01*
X118849011Y-114346305D01*
X118685993Y-114345940D01*
X118560451Y-114344829D01*
X118466903Y-114342588D01*
X118399870Y-114338832D01*
X118353871Y-114333177D01*
X118323424Y-114325239D01*
X118303049Y-114314632D01*
X118287266Y-114300972D01*
X118257682Y-114257580D01*
X118241908Y-114198918D01*
X118252955Y-114150892D01*
X118287266Y-114096865D01*
X118297268Y-114087608D01*
X118316906Y-114074977D01*
X118345263Y-114065686D01*
X118388445Y-114059224D01*
X118452559Y-114055085D01*
X118543710Y-114052758D01*
X118668006Y-114051735D01*
X118831551Y-114051508D01*
X119330480Y-114051508D01*
X119330480Y-113734008D01*
X119006687Y-113734008D01*
X118934731Y-113733716D01*
X118802897Y-113730255D01*
X118707993Y-113721345D01*
X118644240Y-113705064D01*
X118605857Y-113679489D01*
X118587066Y-113642697D01*
X118582087Y-113592766D01*
X118583689Y-113552073D01*
X118594240Y-113508227D01*
X118619942Y-113477387D01*
X118666830Y-113457307D01*
X118740937Y-113445743D01*
X118848299Y-113440451D01*
X118994948Y-113439186D01*
X119332743Y-113439186D01*
X119325942Y-113308784D01*
X119319141Y-113178383D01*
X118821496Y-113172258D01*
X118695755Y-113170493D01*
X118558222Y-113167591D01*
X118455959Y-113163712D01*
X118383129Y-113158388D01*
X118333896Y-113151149D01*
X118302425Y-113141527D01*
X118282880Y-113129056D01*
X118270796Y-113116193D01*
X118244662Y-113052547D01*
X118251815Y-112980856D01*
X118291542Y-112918462D01*
X118298074Y-112912590D01*
X118316114Y-112899830D01*
X118340430Y-112890082D01*
X118376603Y-112882942D01*
X118430217Y-112878006D01*
X118506856Y-112874869D01*
X118612103Y-112873129D01*
X118751539Y-112872381D01*
X118930750Y-112872222D01*
X119040704Y-112872254D01*
G37*
X119040704Y-112872254D02*
X119195586Y-112872640D01*
X119314005Y-112873815D01*
X119401568Y-112876208D01*
X119463882Y-112880251D01*
X119506557Y-112886374D01*
X119535198Y-112895009D01*
X119555414Y-112906584D01*
X119572813Y-112921532D01*
X119576398Y-112924909D01*
X119590951Y-112940054D01*
X119602285Y-112958170D01*
X119610804Y-112984556D01*
X119616909Y-113024509D01*
X119621002Y-113083328D01*
X119623486Y-113166311D01*
X119624763Y-113278757D01*
X119625234Y-113425963D01*
X119625301Y-113613229D01*
X119625228Y-113759457D01*
X119624729Y-113916507D01*
X119623450Y-114037473D01*
X119621045Y-114127632D01*
X119617166Y-114192259D01*
X119611464Y-114236630D01*
X119603592Y-114266022D01*
X119593201Y-114285711D01*
X119579944Y-114300972D01*
X119573246Y-114307354D01*
X119556126Y-114319630D01*
X119532015Y-114329021D01*
X119495432Y-114335912D01*
X119440895Y-114340688D01*
X119362925Y-114343733D01*
X119256041Y-114345431D01*
X119114761Y-114346169D01*
X118933605Y-114346329D01*
X118849011Y-114346305D01*
X118685993Y-114345940D01*
X118560451Y-114344829D01*
X118466903Y-114342588D01*
X118399870Y-114338832D01*
X118353871Y-114333177D01*
X118323424Y-114325239D01*
X118303049Y-114314632D01*
X118287266Y-114300972D01*
X118257682Y-114257580D01*
X118241908Y-114198918D01*
X118252955Y-114150892D01*
X118287266Y-114096865D01*
X118297268Y-114087608D01*
X118316906Y-114074977D01*
X118345263Y-114065686D01*
X118388445Y-114059224D01*
X118452559Y-114055085D01*
X118543710Y-114052758D01*
X118668006Y-114051735D01*
X118831551Y-114051508D01*
X119330480Y-114051508D01*
X119330480Y-113734008D01*
X119006687Y-113734008D01*
X118934731Y-113733716D01*
X118802897Y-113730255D01*
X118707993Y-113721345D01*
X118644240Y-113705064D01*
X118605857Y-113679489D01*
X118587066Y-113642697D01*
X118582087Y-113592766D01*
X118583689Y-113552073D01*
X118594240Y-113508227D01*
X118619942Y-113477387D01*
X118666830Y-113457307D01*
X118740937Y-113445743D01*
X118848299Y-113440451D01*
X118994948Y-113439186D01*
X119332743Y-113439186D01*
X119325942Y-113308784D01*
X119319141Y-113178383D01*
X118821496Y-113172258D01*
X118695755Y-113170493D01*
X118558222Y-113167591D01*
X118455959Y-113163712D01*
X118383129Y-113158388D01*
X118333896Y-113151149D01*
X118302425Y-113141527D01*
X118282880Y-113129056D01*
X118270796Y-113116193D01*
X118244662Y-113052547D01*
X118251815Y-112980856D01*
X118291542Y-112918462D01*
X118298074Y-112912590D01*
X118316114Y-112899830D01*
X118340430Y-112890082D01*
X118376603Y-112882942D01*
X118430217Y-112878006D01*
X118506856Y-112874869D01*
X118612103Y-112873129D01*
X118751539Y-112872381D01*
X118930750Y-112872222D01*
X119040704Y-112872254D01*
G36*
X109148428Y-102291066D02*
G01*
X109515445Y-102324759D01*
X109856404Y-102392709D01*
X110183989Y-102497776D01*
X110510880Y-102642820D01*
X110834467Y-102828010D01*
X111181739Y-103080472D01*
X111503778Y-103372366D01*
X111793491Y-103696466D01*
X112043787Y-104045546D01*
X112247576Y-104412381D01*
X112266074Y-104451624D01*
X112420990Y-104830410D01*
X112538704Y-105224011D01*
X112620737Y-105639948D01*
X112668610Y-106085740D01*
X112683844Y-106568905D01*
X112665321Y-107068373D01*
X112606529Y-107560252D01*
X112506555Y-108020706D01*
X112364504Y-108453001D01*
X112179482Y-108860404D01*
X111950594Y-109246181D01*
X111735593Y-109540911D01*
X111438721Y-109872530D01*
X111115145Y-110156572D01*
X110765005Y-110392945D01*
X110388444Y-110581555D01*
X109985602Y-110722311D01*
X109556623Y-110815118D01*
X109551727Y-110815841D01*
X109469116Y-110823090D01*
X109344450Y-110828466D01*
X109189260Y-110831720D01*
X109015070Y-110832600D01*
X108833410Y-110830855D01*
X108706092Y-110828298D01*
X108517190Y-110822376D01*
X108365820Y-110813897D01*
X108241061Y-110801957D01*
X108131998Y-110785652D01*
X108027711Y-110764075D01*
X107910380Y-110736192D01*
X107787967Y-110704439D01*
X107677257Y-110671129D01*
X107568202Y-110632359D01*
X107450754Y-110584228D01*
X107314866Y-110522835D01*
X107150489Y-110444278D01*
X106947576Y-110344655D01*
X106386367Y-110067307D01*
X106835860Y-109329002D01*
X106894707Y-109232371D01*
X107000431Y-109058906D01*
X107095060Y-108903827D01*
X107175136Y-108772791D01*
X107237201Y-108671454D01*
X107277796Y-108605473D01*
X107293463Y-108580504D01*
X107297821Y-108581250D01*
X107332923Y-108605685D01*
X107394592Y-108656397D01*
X107473084Y-108725518D01*
X107612873Y-108844943D01*
X107862427Y-109021542D01*
X108104553Y-109144653D01*
X108279520Y-109206132D01*
X108575464Y-109268963D01*
X108866237Y-109280100D01*
X109147623Y-109240301D01*
X109415405Y-109150326D01*
X109665368Y-109010934D01*
X109893293Y-108822881D01*
X110020119Y-108684374D01*
X110198790Y-108428184D01*
X110345398Y-108130889D01*
X110460642Y-107790966D01*
X110545226Y-107406892D01*
X110549063Y-107383049D01*
X110566792Y-107228508D01*
X110579990Y-107036495D01*
X110588550Y-106820128D01*
X110592366Y-106592528D01*
X110591330Y-106366815D01*
X110585337Y-106156110D01*
X110574279Y-105973532D01*
X110558048Y-105832203D01*
X110495839Y-105512061D01*
X110391164Y-105138093D01*
X110259518Y-104810690D01*
X110101077Y-104530105D01*
X109916017Y-104296591D01*
X109704515Y-104110402D01*
X109466746Y-103971791D01*
X109202886Y-103881011D01*
X109144345Y-103869744D01*
X108997637Y-103855032D01*
X108826186Y-103850230D01*
X108649200Y-103855073D01*
X108485886Y-103869299D01*
X108355453Y-103892643D01*
X108138167Y-103966974D01*
X107886011Y-104102674D01*
X107661487Y-104281253D01*
X107621859Y-104318871D01*
X107550054Y-104385426D01*
X107499305Y-104430223D01*
X107478688Y-104445124D01*
X107473612Y-104437997D01*
X107442368Y-104392996D01*
X107385924Y-104311284D01*
X107308010Y-104198274D01*
X107212354Y-104059376D01*
X107102687Y-103900001D01*
X106982738Y-103725559D01*
X106492119Y-103011820D01*
X106601720Y-102978982D01*
X106613157Y-102975261D01*
X106687606Y-102945705D01*
X106794942Y-102898045D01*
X106922569Y-102838016D01*
X107057892Y-102771349D01*
X107116859Y-102741873D01*
X107444297Y-102589699D01*
X107746093Y-102472023D01*
X108033854Y-102385835D01*
X108319187Y-102328125D01*
X108613700Y-102295883D01*
X108929001Y-102286098D01*
X109148428Y-102291066D01*
G37*
X109148428Y-102291066D02*
X109515445Y-102324759D01*
X109856404Y-102392709D01*
X110183989Y-102497776D01*
X110510880Y-102642820D01*
X110834467Y-102828010D01*
X111181739Y-103080472D01*
X111503778Y-103372366D01*
X111793491Y-103696466D01*
X112043787Y-104045546D01*
X112247576Y-104412381D01*
X112266074Y-104451624D01*
X112420990Y-104830410D01*
X112538704Y-105224011D01*
X112620737Y-105639948D01*
X112668610Y-106085740D01*
X112683844Y-106568905D01*
X112665321Y-107068373D01*
X112606529Y-107560252D01*
X112506555Y-108020706D01*
X112364504Y-108453001D01*
X112179482Y-108860404D01*
X111950594Y-109246181D01*
X111735593Y-109540911D01*
X111438721Y-109872530D01*
X111115145Y-110156572D01*
X110765005Y-110392945D01*
X110388444Y-110581555D01*
X109985602Y-110722311D01*
X109556623Y-110815118D01*
X109551727Y-110815841D01*
X109469116Y-110823090D01*
X109344450Y-110828466D01*
X109189260Y-110831720D01*
X109015070Y-110832600D01*
X108833410Y-110830855D01*
X108706092Y-110828298D01*
X108517190Y-110822376D01*
X108365820Y-110813897D01*
X108241061Y-110801957D01*
X108131998Y-110785652D01*
X108027711Y-110764075D01*
X107910380Y-110736192D01*
X107787967Y-110704439D01*
X107677257Y-110671129D01*
X107568202Y-110632359D01*
X107450754Y-110584228D01*
X107314866Y-110522835D01*
X107150489Y-110444278D01*
X106947576Y-110344655D01*
X106386367Y-110067307D01*
X106835860Y-109329002D01*
X106894707Y-109232371D01*
X107000431Y-109058906D01*
X107095060Y-108903827D01*
X107175136Y-108772791D01*
X107237201Y-108671454D01*
X107277796Y-108605473D01*
X107293463Y-108580504D01*
X107297821Y-108581250D01*
X107332923Y-108605685D01*
X107394592Y-108656397D01*
X107473084Y-108725518D01*
X107612873Y-108844943D01*
X107862427Y-109021542D01*
X108104553Y-109144653D01*
X108279520Y-109206132D01*
X108575464Y-109268963D01*
X108866237Y-109280100D01*
X109147623Y-109240301D01*
X109415405Y-109150326D01*
X109665368Y-109010934D01*
X109893293Y-108822881D01*
X110020119Y-108684374D01*
X110198790Y-108428184D01*
X110345398Y-108130889D01*
X110460642Y-107790966D01*
X110545226Y-107406892D01*
X110549063Y-107383049D01*
X110566792Y-107228508D01*
X110579990Y-107036495D01*
X110588550Y-106820128D01*
X110592366Y-106592528D01*
X110591330Y-106366815D01*
X110585337Y-106156110D01*
X110574279Y-105973532D01*
X110558048Y-105832203D01*
X110495839Y-105512061D01*
X110391164Y-105138093D01*
X110259518Y-104810690D01*
X110101077Y-104530105D01*
X109916017Y-104296591D01*
X109704515Y-104110402D01*
X109466746Y-103971791D01*
X109202886Y-103881011D01*
X109144345Y-103869744D01*
X108997637Y-103855032D01*
X108826186Y-103850230D01*
X108649200Y-103855073D01*
X108485886Y-103869299D01*
X108355453Y-103892643D01*
X108138167Y-103966974D01*
X107886011Y-104102674D01*
X107661487Y-104281253D01*
X107621859Y-104318871D01*
X107550054Y-104385426D01*
X107499305Y-104430223D01*
X107478688Y-104445124D01*
X107473612Y-104437997D01*
X107442368Y-104392996D01*
X107385924Y-104311284D01*
X107308010Y-104198274D01*
X107212354Y-104059376D01*
X107102687Y-103900001D01*
X106982738Y-103725559D01*
X106492119Y-103011820D01*
X106601720Y-102978982D01*
X106613157Y-102975261D01*
X106687606Y-102945705D01*
X106794942Y-102898045D01*
X106922569Y-102838016D01*
X107057892Y-102771349D01*
X107116859Y-102741873D01*
X107444297Y-102589699D01*
X107746093Y-102472023D01*
X108033854Y-102385835D01*
X108319187Y-102328125D01*
X108613700Y-102295883D01*
X108929001Y-102286098D01*
X109148428Y-102291066D01*
G36*
X99552155Y-112872225D02*
G01*
X99741241Y-112872405D01*
X99890935Y-112873088D01*
X100006261Y-112874578D01*
X100092243Y-112877180D01*
X100153903Y-112881201D01*
X100196265Y-112886946D01*
X100224353Y-112894721D01*
X100243191Y-112904830D01*
X100257801Y-112917579D01*
X100295581Y-112983306D01*
X100298487Y-113058796D01*
X100265626Y-113125570D01*
X100262893Y-113128490D01*
X100240387Y-113145285D01*
X100206030Y-113156445D01*
X100151448Y-113163062D01*
X100068271Y-113166230D01*
X99948126Y-113167043D01*
X99668158Y-113167043D01*
X99668158Y-113696931D01*
X99668007Y-113849264D01*
X99667187Y-113983192D01*
X99665214Y-114083204D01*
X99661606Y-114155359D01*
X99655879Y-114205715D01*
X99647550Y-114240331D01*
X99636136Y-114265264D01*
X99621155Y-114286574D01*
X99616553Y-114292211D01*
X99553919Y-114337698D01*
X99484854Y-114340840D01*
X99418694Y-114300972D01*
X99404675Y-114284748D01*
X99393682Y-114263457D01*
X99385606Y-114231629D01*
X99379999Y-114183462D01*
X99376415Y-114113151D01*
X99374407Y-114014895D01*
X99373530Y-113882888D01*
X99373337Y-113711329D01*
X99373337Y-113167043D01*
X99080162Y-113167043D01*
X99057863Y-113167041D01*
X98944323Y-113166589D01*
X98866287Y-113164301D01*
X98815276Y-113158676D01*
X98782808Y-113148216D01*
X98760405Y-113131418D01*
X98739586Y-113106783D01*
X98707750Y-113045134D01*
X98713982Y-112977271D01*
X98765499Y-112911909D01*
X98775425Y-112904441D01*
X98795936Y-112894726D01*
X98826925Y-112887166D01*
X98873374Y-112881496D01*
X98940267Y-112877451D01*
X99032585Y-112874766D01*
X99155312Y-112873176D01*
X99313430Y-112872416D01*
X99511921Y-112872222D01*
X99552155Y-112872225D01*
G37*
X99552155Y-112872225D02*
X99741241Y-112872405D01*
X99890935Y-112873088D01*
X100006261Y-112874578D01*
X100092243Y-112877180D01*
X100153903Y-112881201D01*
X100196265Y-112886946D01*
X100224353Y-112894721D01*
X100243191Y-112904830D01*
X100257801Y-112917579D01*
X100295581Y-112983306D01*
X100298487Y-113058796D01*
X100265626Y-113125570D01*
X100262893Y-113128490D01*
X100240387Y-113145285D01*
X100206030Y-113156445D01*
X100151448Y-113163062D01*
X100068271Y-113166230D01*
X99948126Y-113167043D01*
X99668158Y-113167043D01*
X99668158Y-113696931D01*
X99668007Y-113849264D01*
X99667187Y-113983192D01*
X99665214Y-114083204D01*
X99661606Y-114155359D01*
X99655879Y-114205715D01*
X99647550Y-114240331D01*
X99636136Y-114265264D01*
X99621155Y-114286574D01*
X99616553Y-114292211D01*
X99553919Y-114337698D01*
X99484854Y-114340840D01*
X99418694Y-114300972D01*
X99404675Y-114284748D01*
X99393682Y-114263457D01*
X99385606Y-114231629D01*
X99379999Y-114183462D01*
X99376415Y-114113151D01*
X99374407Y-114014895D01*
X99373530Y-113882888D01*
X99373337Y-113711329D01*
X99373337Y-113167043D01*
X99080162Y-113167043D01*
X99057863Y-113167041D01*
X98944323Y-113166589D01*
X98866287Y-113164301D01*
X98815276Y-113158676D01*
X98782808Y-113148216D01*
X98760405Y-113131418D01*
X98739586Y-113106783D01*
X98707750Y-113045134D01*
X98713982Y-112977271D01*
X98765499Y-112911909D01*
X98775425Y-112904441D01*
X98795936Y-112894726D01*
X98826925Y-112887166D01*
X98873374Y-112881496D01*
X98940267Y-112877451D01*
X99032585Y-112874766D01*
X99155312Y-112873176D01*
X99313430Y-112872416D01*
X99511921Y-112872222D01*
X99552155Y-112872225D01*
G36*
X100220675Y-108234897D02*
G01*
X100204104Y-108457796D01*
X100175475Y-108662973D01*
X100133504Y-108862551D01*
X100076909Y-109068654D01*
X99991087Y-109315010D01*
X99833463Y-109647578D01*
X99640115Y-109945457D01*
X99414001Y-110205832D01*
X99158079Y-110425886D01*
X98875306Y-110602806D01*
X98568640Y-110733775D01*
X98241040Y-110815979D01*
X98237098Y-110816638D01*
X97997682Y-110839675D01*
X97734627Y-110836600D01*
X97466686Y-110809310D01*
X97212619Y-110759701D01*
X96991180Y-110689667D01*
X96896662Y-110647049D01*
X96773562Y-110582273D01*
X96647068Y-110508186D01*
X96530380Y-110432943D01*
X96436696Y-110364697D01*
X96379216Y-110311604D01*
X96366021Y-110297028D01*
X96350290Y-110291933D01*
X96339776Y-110317228D01*
X96332028Y-110380979D01*
X96324592Y-110491248D01*
X96310937Y-110721020D01*
X95264917Y-110728174D01*
X94218897Y-110735327D01*
X94291274Y-110611826D01*
X94295588Y-110604524D01*
X94316635Y-110570247D01*
X94335728Y-110539710D01*
X94352970Y-110510262D01*
X94368465Y-110479249D01*
X94382314Y-110444018D01*
X94394621Y-110401917D01*
X94405488Y-110350293D01*
X94415018Y-110286492D01*
X94423313Y-110207862D01*
X94430477Y-110111750D01*
X94436613Y-109995504D01*
X94441822Y-109856469D01*
X94446208Y-109691993D01*
X94449873Y-109499424D01*
X94452921Y-109276108D01*
X94455379Y-109026911D01*
X96447496Y-109026911D01*
X96584055Y-109116482D01*
X96636570Y-109148749D01*
X96756818Y-109213208D01*
X96870829Y-109264539D01*
X96920759Y-109281919D01*
X97079632Y-109316616D01*
X97280506Y-109334334D01*
X97382651Y-109338021D01*
X97477466Y-109337183D01*
X97548046Y-109327713D01*
X97611353Y-109307015D01*
X97684347Y-109272491D01*
X97824627Y-109180012D01*
X97946155Y-109049192D01*
X98043435Y-108880608D01*
X98117390Y-108671616D01*
X98168947Y-108419573D01*
X98199031Y-108121838D01*
X98208568Y-107775768D01*
X98208104Y-107697090D01*
X98194393Y-107332547D01*
X98161100Y-107015345D01*
X98107416Y-106742137D01*
X98032529Y-106509577D01*
X97935631Y-106314317D01*
X97815912Y-106153012D01*
X97766244Y-106103782D01*
X97612316Y-106001219D01*
X97431620Y-105938807D01*
X97231984Y-105916902D01*
X97021235Y-105935857D01*
X96807201Y-105996029D01*
X96597711Y-106097771D01*
X96447496Y-106187812D01*
X96447496Y-109026911D01*
X94455379Y-109026911D01*
X94455453Y-109019392D01*
X94457573Y-108726625D01*
X94459384Y-108395151D01*
X94460987Y-108022320D01*
X94462487Y-107605477D01*
X94463985Y-107141970D01*
X94465585Y-106629147D01*
X94467388Y-106064353D01*
X94481044Y-101899299D01*
X95566689Y-101892158D01*
X95645639Y-101891677D01*
X95877926Y-101890724D01*
X96090387Y-101890530D01*
X96277224Y-101891057D01*
X96432636Y-101892264D01*
X96550824Y-101894112D01*
X96625990Y-101896561D01*
X96652334Y-101899572D01*
X96648964Y-101909114D01*
X96623822Y-101954351D01*
X96582180Y-102020137D01*
X96578026Y-102026427D01*
X96545739Y-102077221D01*
X96518668Y-102126642D01*
X96496354Y-102179780D01*
X96478338Y-102241726D01*
X96464160Y-102317571D01*
X96453362Y-102412405D01*
X96445484Y-102531318D01*
X96440068Y-102679402D01*
X96436655Y-102861747D01*
X96434785Y-103083443D01*
X96433999Y-103349582D01*
X96433840Y-103665253D01*
X96434126Y-103911713D01*
X96435002Y-104153680D01*
X96436405Y-104373079D01*
X96438272Y-104564568D01*
X96440538Y-104722804D01*
X96443140Y-104842445D01*
X96446014Y-104918147D01*
X96449097Y-104944568D01*
X96459040Y-104940467D01*
X96502749Y-104911590D01*
X96565172Y-104864164D01*
X96655669Y-104800386D01*
X96825698Y-104706413D01*
X97020036Y-104622588D01*
X97220541Y-104557401D01*
X97389001Y-104524161D01*
X97598809Y-104502972D01*
X97825879Y-104495631D01*
X98052688Y-104502147D01*
X98261715Y-104522528D01*
X98435434Y-104556784D01*
X98612319Y-104614488D01*
X98907406Y-104754374D01*
X99180634Y-104940343D01*
X99426963Y-105168113D01*
X99641353Y-105433402D01*
X99818762Y-105731928D01*
X99862806Y-105823469D01*
X99986232Y-106132243D01*
X100082729Y-106467363D01*
X100153515Y-106834734D01*
X100199811Y-107240264D01*
X100222835Y-107689862D01*
X100223904Y-107775768D01*
X100226470Y-107982151D01*
X100220675Y-108234897D01*
G37*
X100220675Y-108234897D02*
X100204104Y-108457796D01*
X100175475Y-108662973D01*
X100133504Y-108862551D01*
X100076909Y-109068654D01*
X99991087Y-109315010D01*
X99833463Y-109647578D01*
X99640115Y-109945457D01*
X99414001Y-110205832D01*
X99158079Y-110425886D01*
X98875306Y-110602806D01*
X98568640Y-110733775D01*
X98241040Y-110815979D01*
X98237098Y-110816638D01*
X97997682Y-110839675D01*
X97734627Y-110836600D01*
X97466686Y-110809310D01*
X97212619Y-110759701D01*
X96991180Y-110689667D01*
X96896662Y-110647049D01*
X96773562Y-110582273D01*
X96647068Y-110508186D01*
X96530380Y-110432943D01*
X96436696Y-110364697D01*
X96379216Y-110311604D01*
X96366021Y-110297028D01*
X96350290Y-110291933D01*
X96339776Y-110317228D01*
X96332028Y-110380979D01*
X96324592Y-110491248D01*
X96310937Y-110721020D01*
X95264917Y-110728174D01*
X94218897Y-110735327D01*
X94291274Y-110611826D01*
X94295588Y-110604524D01*
X94316635Y-110570247D01*
X94335728Y-110539710D01*
X94352970Y-110510262D01*
X94368465Y-110479249D01*
X94382314Y-110444018D01*
X94394621Y-110401917D01*
X94405488Y-110350293D01*
X94415018Y-110286492D01*
X94423313Y-110207862D01*
X94430477Y-110111750D01*
X94436613Y-109995504D01*
X94441822Y-109856469D01*
X94446208Y-109691993D01*
X94449873Y-109499424D01*
X94452921Y-109276108D01*
X94455379Y-109026911D01*
X96447496Y-109026911D01*
X96584055Y-109116482D01*
X96636570Y-109148749D01*
X96756818Y-109213208D01*
X96870829Y-109264539D01*
X96920759Y-109281919D01*
X97079632Y-109316616D01*
X97280506Y-109334334D01*
X97382651Y-109338021D01*
X97477466Y-109337183D01*
X97548046Y-109327713D01*
X97611353Y-109307015D01*
X97684347Y-109272491D01*
X97824627Y-109180012D01*
X97946155Y-109049192D01*
X98043435Y-108880608D01*
X98117390Y-108671616D01*
X98168947Y-108419573D01*
X98199031Y-108121838D01*
X98208568Y-107775768D01*
X98208104Y-107697090D01*
X98194393Y-107332547D01*
X98161100Y-107015345D01*
X98107416Y-106742137D01*
X98032529Y-106509577D01*
X97935631Y-106314317D01*
X97815912Y-106153012D01*
X97766244Y-106103782D01*
X97612316Y-106001219D01*
X97431620Y-105938807D01*
X97231984Y-105916902D01*
X97021235Y-105935857D01*
X96807201Y-105996029D01*
X96597711Y-106097771D01*
X96447496Y-106187812D01*
X96447496Y-109026911D01*
X94455379Y-109026911D01*
X94455453Y-109019392D01*
X94457573Y-108726625D01*
X94459384Y-108395151D01*
X94460987Y-108022320D01*
X94462487Y-107605477D01*
X94463985Y-107141970D01*
X94465585Y-106629147D01*
X94467388Y-106064353D01*
X94481044Y-101899299D01*
X95566689Y-101892158D01*
X95645639Y-101891677D01*
X95877926Y-101890724D01*
X96090387Y-101890530D01*
X96277224Y-101891057D01*
X96432636Y-101892264D01*
X96550824Y-101894112D01*
X96625990Y-101896561D01*
X96652334Y-101899572D01*
X96648964Y-101909114D01*
X96623822Y-101954351D01*
X96582180Y-102020137D01*
X96578026Y-102026427D01*
X96545739Y-102077221D01*
X96518668Y-102126642D01*
X96496354Y-102179780D01*
X96478338Y-102241726D01*
X96464160Y-102317571D01*
X96453362Y-102412405D01*
X96445484Y-102531318D01*
X96440068Y-102679402D01*
X96436655Y-102861747D01*
X96434785Y-103083443D01*
X96433999Y-103349582D01*
X96433840Y-103665253D01*
X96434126Y-103911713D01*
X96435002Y-104153680D01*
X96436405Y-104373079D01*
X96438272Y-104564568D01*
X96440538Y-104722804D01*
X96443140Y-104842445D01*
X96446014Y-104918147D01*
X96449097Y-104944568D01*
X96459040Y-104940467D01*
X96502749Y-104911590D01*
X96565172Y-104864164D01*
X96655669Y-104800386D01*
X96825698Y-104706413D01*
X97020036Y-104622588D01*
X97220541Y-104557401D01*
X97389001Y-104524161D01*
X97598809Y-104502972D01*
X97825879Y-104495631D01*
X98052688Y-104502147D01*
X98261715Y-104522528D01*
X98435434Y-104556784D01*
X98612319Y-104614488D01*
X98907406Y-104754374D01*
X99180634Y-104940343D01*
X99426963Y-105168113D01*
X99641353Y-105433402D01*
X99818762Y-105731928D01*
X99862806Y-105823469D01*
X99986232Y-106132243D01*
X100082729Y-106467363D01*
X100153515Y-106834734D01*
X100199811Y-107240264D01*
X100222835Y-107689862D01*
X100223904Y-107775768D01*
X100226470Y-107982151D01*
X100220675Y-108234897D01*
G36*
X111959551Y-112869861D02*
G01*
X111982468Y-112882191D01*
X112003659Y-112903609D01*
X112026334Y-112931977D01*
X112035279Y-112943952D01*
X112047330Y-112965036D01*
X112056530Y-112992810D01*
X112063262Y-113032797D01*
X112067912Y-113090522D01*
X112070860Y-113171509D01*
X112072492Y-113281281D01*
X112073190Y-113425362D01*
X112073337Y-113609275D01*
X112073291Y-113726858D01*
X112072852Y-113885740D01*
X112071629Y-114008168D01*
X112069237Y-114099669D01*
X112065293Y-114165764D01*
X112059414Y-114211978D01*
X112051217Y-114243835D01*
X112040318Y-114266859D01*
X112026334Y-114286574D01*
X111965205Y-114335578D01*
X111895007Y-114341363D01*
X111820716Y-114303012D01*
X111812310Y-114296030D01*
X111795885Y-114278899D01*
X111783710Y-114255694D01*
X111774906Y-114219870D01*
X111768594Y-114164881D01*
X111763898Y-114084183D01*
X111759938Y-113971230D01*
X111755837Y-113819476D01*
X111744498Y-113379258D01*
X111211551Y-113862688D01*
X111063224Y-113996837D01*
X110932283Y-114113588D01*
X110827428Y-114203905D01*
X110744913Y-114270043D01*
X110680991Y-114314255D01*
X110631916Y-114338794D01*
X110593943Y-114345917D01*
X110563326Y-114337875D01*
X110536317Y-114316924D01*
X110509173Y-114285317D01*
X110496626Y-114268274D01*
X110485313Y-114247025D01*
X110476853Y-114218582D01*
X110470923Y-114177495D01*
X110467196Y-114118311D01*
X110465350Y-114035580D01*
X110465058Y-113923850D01*
X110465996Y-113777670D01*
X110467839Y-113591588D01*
X110474498Y-112958871D01*
X110528037Y-112915546D01*
X110580400Y-112883019D01*
X110646410Y-112877452D01*
X110715780Y-112915527D01*
X110724442Y-112922728D01*
X110740779Y-112939864D01*
X110752891Y-112963151D01*
X110761652Y-112999122D01*
X110767935Y-113054309D01*
X110772615Y-113135246D01*
X110776564Y-113248463D01*
X110780658Y-113400494D01*
X110791998Y-113842156D01*
X111154855Y-113513105D01*
X111329105Y-113355136D01*
X111481325Y-113217739D01*
X111606153Y-113106546D01*
X111706796Y-113019418D01*
X111786465Y-112954214D01*
X111848366Y-112908796D01*
X111895708Y-112881024D01*
X111931701Y-112868759D01*
X111959551Y-112869861D01*
G37*
X111959551Y-112869861D02*
X111982468Y-112882191D01*
X112003659Y-112903609D01*
X112026334Y-112931977D01*
X112035279Y-112943952D01*
X112047330Y-112965036D01*
X112056530Y-112992810D01*
X112063262Y-113032797D01*
X112067912Y-113090522D01*
X112070860Y-113171509D01*
X112072492Y-113281281D01*
X112073190Y-113425362D01*
X112073337Y-113609275D01*
X112073291Y-113726858D01*
X112072852Y-113885740D01*
X112071629Y-114008168D01*
X112069237Y-114099669D01*
X112065293Y-114165764D01*
X112059414Y-114211978D01*
X112051217Y-114243835D01*
X112040318Y-114266859D01*
X112026334Y-114286574D01*
X111965205Y-114335578D01*
X111895007Y-114341363D01*
X111820716Y-114303012D01*
X111812310Y-114296030D01*
X111795885Y-114278899D01*
X111783710Y-114255694D01*
X111774906Y-114219870D01*
X111768594Y-114164881D01*
X111763898Y-114084183D01*
X111759938Y-113971230D01*
X111755837Y-113819476D01*
X111744498Y-113379258D01*
X111211551Y-113862688D01*
X111063224Y-113996837D01*
X110932283Y-114113588D01*
X110827428Y-114203905D01*
X110744913Y-114270043D01*
X110680991Y-114314255D01*
X110631916Y-114338794D01*
X110593943Y-114345917D01*
X110563326Y-114337875D01*
X110536317Y-114316924D01*
X110509173Y-114285317D01*
X110496626Y-114268274D01*
X110485313Y-114247025D01*
X110476853Y-114218582D01*
X110470923Y-114177495D01*
X110467196Y-114118311D01*
X110465350Y-114035580D01*
X110465058Y-113923850D01*
X110465996Y-113777670D01*
X110467839Y-113591588D01*
X110474498Y-112958871D01*
X110528037Y-112915546D01*
X110580400Y-112883019D01*
X110646410Y-112877452D01*
X110715780Y-112915527D01*
X110724442Y-112922728D01*
X110740779Y-112939864D01*
X110752891Y-112963151D01*
X110761652Y-112999122D01*
X110767935Y-113054309D01*
X110772615Y-113135246D01*
X110776564Y-113248463D01*
X110780658Y-113400494D01*
X110791998Y-113842156D01*
X111154855Y-113513105D01*
X111329105Y-113355136D01*
X111481325Y-113217739D01*
X111606153Y-113106546D01*
X111706796Y-113019418D01*
X111786465Y-112954214D01*
X111848366Y-112908796D01*
X111895708Y-112881024D01*
X111931701Y-112868759D01*
X111959551Y-112869861D01*
G36*
X109645084Y-112931977D02*
G01*
X109655026Y-112945404D01*
X109666767Y-112966641D01*
X109675729Y-112994940D01*
X109682286Y-113035772D01*
X109686812Y-113094607D01*
X109689681Y-113176917D01*
X109691267Y-113288171D01*
X109691944Y-113433841D01*
X109692087Y-113619397D01*
X109692029Y-113751819D01*
X109691563Y-113909153D01*
X109690316Y-114030226D01*
X109687920Y-114120423D01*
X109684009Y-114185127D01*
X109678213Y-114229722D01*
X109670165Y-114259593D01*
X109659499Y-114280123D01*
X109645846Y-114296695D01*
X109636776Y-114306052D01*
X109620243Y-114319083D01*
X109597422Y-114328950D01*
X109562732Y-114336092D01*
X109510590Y-114340950D01*
X109435417Y-114343963D01*
X109331631Y-114345571D01*
X109193649Y-114346213D01*
X109015893Y-114346329D01*
X108976368Y-114346316D01*
X108801540Y-114345781D01*
X108665632Y-114344242D01*
X108563268Y-114341401D01*
X108489075Y-114336958D01*
X108437678Y-114330614D01*
X108403703Y-114322069D01*
X108381776Y-114311025D01*
X108360698Y-114290964D01*
X108334057Y-114228453D01*
X108336433Y-114156355D01*
X108368906Y-114092981D01*
X108373304Y-114088408D01*
X108390757Y-114075816D01*
X108417560Y-114066443D01*
X108459713Y-114059821D01*
X108523218Y-114055483D01*
X108614076Y-114052963D01*
X108738287Y-114051794D01*
X108901852Y-114051508D01*
X109397266Y-114051508D01*
X109397266Y-113734008D01*
X109070939Y-113734008D01*
X108999283Y-113733846D01*
X108887245Y-113732244D01*
X108808620Y-113728217D01*
X108755476Y-113720902D01*
X108719883Y-113709434D01*
X108693908Y-113692950D01*
X108686589Y-113686554D01*
X108649610Y-113624327D01*
X108648336Y-113551330D01*
X108683571Y-113483792D01*
X108683695Y-113483654D01*
X108703123Y-113466324D01*
X108729829Y-113454159D01*
X108771428Y-113446261D01*
X108835536Y-113441732D01*
X108929766Y-113439673D01*
X109061734Y-113439186D01*
X109399529Y-113439186D01*
X109392728Y-113308784D01*
X109385926Y-113178383D01*
X108899610Y-113172249D01*
X108849354Y-113171590D01*
X108685386Y-113168618D01*
X108560191Y-113163828D01*
X108468557Y-113155802D01*
X108405271Y-113143118D01*
X108365122Y-113124357D01*
X108342898Y-113098098D01*
X108333385Y-113062920D01*
X108331373Y-113017404D01*
X108331385Y-113012652D01*
X108333703Y-112972411D01*
X108343341Y-112940685D01*
X108365053Y-112916464D01*
X108403593Y-112898739D01*
X108463717Y-112886501D01*
X108550178Y-112878740D01*
X108667731Y-112874446D01*
X108821130Y-112872609D01*
X109015130Y-112872222D01*
X109598081Y-112872222D01*
X109645084Y-112931977D01*
G37*
X109645084Y-112931977D02*
X109655026Y-112945404D01*
X109666767Y-112966641D01*
X109675729Y-112994940D01*
X109682286Y-113035772D01*
X109686812Y-113094607D01*
X109689681Y-113176917D01*
X109691267Y-113288171D01*
X109691944Y-113433841D01*
X109692087Y-113619397D01*
X109692029Y-113751819D01*
X109691563Y-113909153D01*
X109690316Y-114030226D01*
X109687920Y-114120423D01*
X109684009Y-114185127D01*
X109678213Y-114229722D01*
X109670165Y-114259593D01*
X109659499Y-114280123D01*
X109645846Y-114296695D01*
X109636776Y-114306052D01*
X109620243Y-114319083D01*
X109597422Y-114328950D01*
X109562732Y-114336092D01*
X109510590Y-114340950D01*
X109435417Y-114343963D01*
X109331631Y-114345571D01*
X109193649Y-114346213D01*
X109015893Y-114346329D01*
X108976368Y-114346316D01*
X108801540Y-114345781D01*
X108665632Y-114344242D01*
X108563268Y-114341401D01*
X108489075Y-114336958D01*
X108437678Y-114330614D01*
X108403703Y-114322069D01*
X108381776Y-114311025D01*
X108360698Y-114290964D01*
X108334057Y-114228453D01*
X108336433Y-114156355D01*
X108368906Y-114092981D01*
X108373304Y-114088408D01*
X108390757Y-114075816D01*
X108417560Y-114066443D01*
X108459713Y-114059821D01*
X108523218Y-114055483D01*
X108614076Y-114052963D01*
X108738287Y-114051794D01*
X108901852Y-114051508D01*
X109397266Y-114051508D01*
X109397266Y-113734008D01*
X109070939Y-113734008D01*
X108999283Y-113733846D01*
X108887245Y-113732244D01*
X108808620Y-113728217D01*
X108755476Y-113720902D01*
X108719883Y-113709434D01*
X108693908Y-113692950D01*
X108686589Y-113686554D01*
X108649610Y-113624327D01*
X108648336Y-113551330D01*
X108683571Y-113483792D01*
X108683695Y-113483654D01*
X108703123Y-113466324D01*
X108729829Y-113454159D01*
X108771428Y-113446261D01*
X108835536Y-113441732D01*
X108929766Y-113439673D01*
X109061734Y-113439186D01*
X109399529Y-113439186D01*
X109392728Y-113308784D01*
X109385926Y-113178383D01*
X108899610Y-113172249D01*
X108849354Y-113171590D01*
X108685386Y-113168618D01*
X108560191Y-113163828D01*
X108468557Y-113155802D01*
X108405271Y-113143118D01*
X108365122Y-113124357D01*
X108342898Y-113098098D01*
X108333385Y-113062920D01*
X108331373Y-113017404D01*
X108331385Y-113012652D01*
X108333703Y-112972411D01*
X108343341Y-112940685D01*
X108365053Y-112916464D01*
X108403593Y-112898739D01*
X108463717Y-112886501D01*
X108550178Y-112878740D01*
X108667731Y-112874446D01*
X108821130Y-112872609D01*
X109015130Y-112872222D01*
X109598081Y-112872222D01*
X109645084Y-112931977D01*
G36*
X98194051Y-112917579D02*
G01*
X98205366Y-112930015D01*
X98215593Y-112946499D01*
X98223802Y-112970158D01*
X98230186Y-113005232D01*
X98234940Y-113055965D01*
X98238256Y-113126599D01*
X98240328Y-113221377D01*
X98241349Y-113344541D01*
X98241512Y-113500334D01*
X98241011Y-113692998D01*
X98240039Y-113926775D01*
X98239902Y-113955252D01*
X98238724Y-114079328D01*
X98236068Y-114167084D01*
X98230954Y-114226107D01*
X98222405Y-114263983D01*
X98209445Y-114288299D01*
X98191094Y-114306641D01*
X98123881Y-114341631D01*
X98053672Y-114335802D01*
X97991590Y-114286574D01*
X97973491Y-114260050D01*
X97958522Y-114222814D01*
X97949747Y-114170524D01*
X97945619Y-114093088D01*
X97944587Y-113980413D01*
X97944587Y-113734008D01*
X96946730Y-113734008D01*
X96946730Y-114004864D01*
X96946583Y-114076766D01*
X96945051Y-114169839D01*
X96940679Y-114231181D01*
X96932047Y-114269411D01*
X96917736Y-114293152D01*
X96896327Y-114311025D01*
X96831536Y-114341299D01*
X96760648Y-114335941D01*
X96698912Y-114286574D01*
X96689559Y-114274009D01*
X96677635Y-114252866D01*
X96668532Y-114224883D01*
X96661871Y-114184555D01*
X96657273Y-114126382D01*
X96654356Y-114044861D01*
X96652743Y-113934489D01*
X96652054Y-113789765D01*
X96651908Y-113605186D01*
X96651908Y-112983553D01*
X96707574Y-112927887D01*
X96770611Y-112883203D01*
X96837366Y-112877800D01*
X96901373Y-112917579D01*
X96918018Y-112937207D01*
X96932908Y-112969133D01*
X96941622Y-113017282D01*
X96945712Y-113091357D01*
X96946730Y-113201061D01*
X96946730Y-113439186D01*
X97944587Y-113439186D01*
X97944587Y-113211370D01*
X97944588Y-113207128D01*
X97945467Y-113103272D01*
X97949412Y-113033914D01*
X97958484Y-112988561D01*
X97974744Y-112956716D01*
X98000253Y-112927887D01*
X98063290Y-112883203D01*
X98130044Y-112877800D01*
X98194051Y-112917579D01*
G37*
X98194051Y-112917579D02*
X98205366Y-112930015D01*
X98215593Y-112946499D01*
X98223802Y-112970158D01*
X98230186Y-113005232D01*
X98234940Y-113055965D01*
X98238256Y-113126599D01*
X98240328Y-113221377D01*
X98241349Y-113344541D01*
X98241512Y-113500334D01*
X98241011Y-113692998D01*
X98240039Y-113926775D01*
X98239902Y-113955252D01*
X98238724Y-114079328D01*
X98236068Y-114167084D01*
X98230954Y-114226107D01*
X98222405Y-114263983D01*
X98209445Y-114288299D01*
X98191094Y-114306641D01*
X98123881Y-114341631D01*
X98053672Y-114335802D01*
X97991590Y-114286574D01*
X97973491Y-114260050D01*
X97958522Y-114222814D01*
X97949747Y-114170524D01*
X97945619Y-114093088D01*
X97944587Y-113980413D01*
X97944587Y-113734008D01*
X96946730Y-113734008D01*
X96946730Y-114004864D01*
X96946583Y-114076766D01*
X96945051Y-114169839D01*
X96940679Y-114231181D01*
X96932047Y-114269411D01*
X96917736Y-114293152D01*
X96896327Y-114311025D01*
X96831536Y-114341299D01*
X96760648Y-114335941D01*
X96698912Y-114286574D01*
X96689559Y-114274009D01*
X96677635Y-114252866D01*
X96668532Y-114224883D01*
X96661871Y-114184555D01*
X96657273Y-114126382D01*
X96654356Y-114044861D01*
X96652743Y-113934489D01*
X96652054Y-113789765D01*
X96651908Y-113605186D01*
X96651908Y-112983553D01*
X96707574Y-112927887D01*
X96770611Y-112883203D01*
X96837366Y-112877800D01*
X96901373Y-112917579D01*
X96918018Y-112937207D01*
X96932908Y-112969133D01*
X96941622Y-113017282D01*
X96945712Y-113091357D01*
X96946730Y-113201061D01*
X96946730Y-113439186D01*
X97944587Y-113439186D01*
X97944587Y-113211370D01*
X97944588Y-113207128D01*
X97945467Y-113103272D01*
X97949412Y-113033914D01*
X97958484Y-112988561D01*
X97974744Y-112956716D01*
X98000253Y-112927887D01*
X98063290Y-112883203D01*
X98130044Y-112877800D01*
X98194051Y-112917579D01*
G36*
X116999872Y-112873968D02*
G01*
X117132956Y-112884876D01*
X117244051Y-112904158D01*
X117346271Y-112934013D01*
X117489532Y-113000574D01*
X117592302Y-113086320D01*
X117654224Y-113190914D01*
X117674944Y-113314018D01*
X117673062Y-113376794D01*
X117661425Y-113426610D01*
X117631679Y-113470143D01*
X117575484Y-113525088D01*
X117559456Y-113539811D01*
X117511826Y-113581804D01*
X117466838Y-113615897D01*
X117418556Y-113643928D01*
X117361044Y-113667736D01*
X117288368Y-113689159D01*
X117194590Y-113710035D01*
X117073777Y-113732202D01*
X116919991Y-113757499D01*
X116727297Y-113787765D01*
X116690405Y-113793860D01*
X116565189Y-113821223D01*
X116474350Y-113852830D01*
X116421548Y-113887125D01*
X116410441Y-113922551D01*
X116415706Y-113931130D01*
X116451730Y-113961394D01*
X116508233Y-113994811D01*
X116533946Y-114006846D01*
X116576733Y-114021295D01*
X116629741Y-114030892D01*
X116701749Y-114036555D01*
X116801539Y-114039202D01*
X116937891Y-114039752D01*
X116973619Y-114039605D01*
X117109465Y-114037373D01*
X117239922Y-114032903D01*
X117351670Y-114026743D01*
X117431385Y-114019442D01*
X117502725Y-114011269D01*
X117561491Y-114009696D01*
X117599461Y-114018936D01*
X117629823Y-114040382D01*
X117637168Y-114047600D01*
X117669998Y-114111431D01*
X117667347Y-114183058D01*
X117629263Y-114244568D01*
X117588340Y-114267884D01*
X117516052Y-114293387D01*
X117430826Y-114313576D01*
X117423893Y-114314779D01*
X117338174Y-114325259D01*
X117222888Y-114334045D01*
X117092274Y-114340248D01*
X116960569Y-114342978D01*
X116927959Y-114343062D01*
X116730457Y-114338085D01*
X116569638Y-114322001D01*
X116438697Y-114292808D01*
X116330825Y-114248503D01*
X116239217Y-114187083D01*
X116157066Y-114106545D01*
X116116644Y-114053859D01*
X116093288Y-113994500D01*
X116087444Y-113914712D01*
X116087727Y-113890668D01*
X116095508Y-113825013D01*
X116120387Y-113771724D01*
X116170942Y-113709752D01*
X116213555Y-113665274D01*
X116266583Y-113619981D01*
X116326283Y-113583082D01*
X116399064Y-113552434D01*
X116491339Y-113525892D01*
X116609518Y-113501313D01*
X116760011Y-113476552D01*
X116949230Y-113449465D01*
X117040258Y-113435383D01*
X117176774Y-113406135D01*
X117275484Y-113372989D01*
X117334883Y-113337033D01*
X117353466Y-113299356D01*
X117329728Y-113261046D01*
X117262164Y-113223191D01*
X117256045Y-113220752D01*
X117162913Y-113196488D01*
X117037053Y-113180014D01*
X116889529Y-113171656D01*
X116731407Y-113171742D01*
X116573750Y-113180598D01*
X116427623Y-113198550D01*
X116419734Y-113199853D01*
X116321665Y-113215336D01*
X116256874Y-113222592D01*
X116214692Y-113221391D01*
X116184450Y-113211505D01*
X116155480Y-113192704D01*
X116153130Y-113190956D01*
X116103877Y-113129937D01*
X116094248Y-113058617D01*
X116126002Y-112989146D01*
X116135134Y-112980193D01*
X116194627Y-112949779D01*
X116289010Y-112923416D01*
X116410156Y-112901720D01*
X116549941Y-112885309D01*
X116700239Y-112874802D01*
X116852925Y-112870816D01*
X116999872Y-112873968D01*
G37*
X116999872Y-112873968D02*
X117132956Y-112884876D01*
X117244051Y-112904158D01*
X117346271Y-112934013D01*
X117489532Y-113000574D01*
X117592302Y-113086320D01*
X117654224Y-113190914D01*
X117674944Y-113314018D01*
X117673062Y-113376794D01*
X117661425Y-113426610D01*
X117631679Y-113470143D01*
X117575484Y-113525088D01*
X117559456Y-113539811D01*
X117511826Y-113581804D01*
X117466838Y-113615897D01*
X117418556Y-113643928D01*
X117361044Y-113667736D01*
X117288368Y-113689159D01*
X117194590Y-113710035D01*
X117073777Y-113732202D01*
X116919991Y-113757499D01*
X116727297Y-113787765D01*
X116690405Y-113793860D01*
X116565189Y-113821223D01*
X116474350Y-113852830D01*
X116421548Y-113887125D01*
X116410441Y-113922551D01*
X116415706Y-113931130D01*
X116451730Y-113961394D01*
X116508233Y-113994811D01*
X116533946Y-114006846D01*
X116576733Y-114021295D01*
X116629741Y-114030892D01*
X116701749Y-114036555D01*
X116801539Y-114039202D01*
X116937891Y-114039752D01*
X116973619Y-114039605D01*
X117109465Y-114037373D01*
X117239922Y-114032903D01*
X117351670Y-114026743D01*
X117431385Y-114019442D01*
X117502725Y-114011269D01*
X117561491Y-114009696D01*
X117599461Y-114018936D01*
X117629823Y-114040382D01*
X117637168Y-114047600D01*
X117669998Y-114111431D01*
X117667347Y-114183058D01*
X117629263Y-114244568D01*
X117588340Y-114267884D01*
X117516052Y-114293387D01*
X117430826Y-114313576D01*
X117423893Y-114314779D01*
X117338174Y-114325259D01*
X117222888Y-114334045D01*
X117092274Y-114340248D01*
X116960569Y-114342978D01*
X116927959Y-114343062D01*
X116730457Y-114338085D01*
X116569638Y-114322001D01*
X116438697Y-114292808D01*
X116330825Y-114248503D01*
X116239217Y-114187083D01*
X116157066Y-114106545D01*
X116116644Y-114053859D01*
X116093288Y-113994500D01*
X116087444Y-113914712D01*
X116087727Y-113890668D01*
X116095508Y-113825013D01*
X116120387Y-113771724D01*
X116170942Y-113709752D01*
X116213555Y-113665274D01*
X116266583Y-113619981D01*
X116326283Y-113583082D01*
X116399064Y-113552434D01*
X116491339Y-113525892D01*
X116609518Y-113501313D01*
X116760011Y-113476552D01*
X116949230Y-113449465D01*
X117040258Y-113435383D01*
X117176774Y-113406135D01*
X117275484Y-113372989D01*
X117334883Y-113337033D01*
X117353466Y-113299356D01*
X117329728Y-113261046D01*
X117262164Y-113223191D01*
X117256045Y-113220752D01*
X117162913Y-113196488D01*
X117037053Y-113180014D01*
X116889529Y-113171656D01*
X116731407Y-113171742D01*
X116573750Y-113180598D01*
X116427623Y-113198550D01*
X116419734Y-113199853D01*
X116321665Y-113215336D01*
X116256874Y-113222592D01*
X116214692Y-113221391D01*
X116184450Y-113211505D01*
X116155480Y-113192704D01*
X116153130Y-113190956D01*
X116103877Y-113129937D01*
X116094248Y-113058617D01*
X116126002Y-112989146D01*
X116135134Y-112980193D01*
X116194627Y-112949779D01*
X116289010Y-112923416D01*
X116410156Y-112901720D01*
X116549941Y-112885309D01*
X116700239Y-112874802D01*
X116852925Y-112870816D01*
X116999872Y-112873968D01*
G36*
X113561183Y-112882492D02*
G01*
X113774142Y-112915268D01*
X113962605Y-112971621D01*
X114120899Y-113049781D01*
X114243352Y-113147981D01*
X114295725Y-113213998D01*
X114355004Y-113312835D01*
X114405773Y-113421032D01*
X114441229Y-113523823D01*
X114454569Y-113606440D01*
X114451436Y-113646046D01*
X114425437Y-113749169D01*
X114378904Y-113862727D01*
X114318854Y-113971042D01*
X114252301Y-114058438D01*
X114231817Y-114079227D01*
X114097047Y-114183239D01*
X113936081Y-114263380D01*
X113762891Y-114312401D01*
X113652471Y-114328698D01*
X113464731Y-114341966D01*
X113284369Y-114337773D01*
X113118653Y-114317191D01*
X112974848Y-114281291D01*
X112860223Y-114231145D01*
X112782042Y-114167822D01*
X112779279Y-114163853D01*
X112765040Y-114113176D01*
X112756525Y-114018252D01*
X112753694Y-113878704D01*
X112755422Y-113753683D01*
X112764903Y-113658495D01*
X112788387Y-113594002D01*
X112832120Y-113554722D01*
X112902350Y-113535175D01*
X113005324Y-113529877D01*
X113147288Y-113533349D01*
X113244963Y-113539400D01*
X113345803Y-113555858D01*
X113411081Y-113584090D01*
X113446154Y-113626751D01*
X113456383Y-113686496D01*
X113456169Y-113695619D01*
X113438687Y-113765518D01*
X113390454Y-113812561D01*
X113307555Y-113839079D01*
X113186078Y-113847400D01*
X113048516Y-113847400D01*
X113048516Y-113924447D01*
X113048617Y-113942799D01*
X113053078Y-113977455D01*
X113071695Y-113998135D01*
X113114647Y-114012072D01*
X113192114Y-114026501D01*
X113203111Y-114028377D01*
X113397878Y-114048272D01*
X113578664Y-114042408D01*
X113741202Y-114012816D01*
X113881222Y-113961527D01*
X113994455Y-113890571D01*
X114076632Y-113801979D01*
X114123484Y-113697782D01*
X114130741Y-113580011D01*
X114119654Y-113521963D01*
X114066049Y-113409685D01*
X113973259Y-113317958D01*
X113842716Y-113247975D01*
X113675851Y-113200929D01*
X113626282Y-113191992D01*
X113446827Y-113170899D01*
X113286499Y-113173369D01*
X113129617Y-113199355D01*
X113059016Y-113212994D01*
X112967735Y-113215039D01*
X112904826Y-113189864D01*
X112864339Y-113136051D01*
X112851514Y-113079304D01*
X112870572Y-113016577D01*
X112889313Y-112989607D01*
X112958087Y-112942334D01*
X113063801Y-112906431D01*
X113201446Y-112883335D01*
X113366016Y-112874483D01*
X113561183Y-112882492D01*
G37*
X113561183Y-112882492D02*
X113774142Y-112915268D01*
X113962605Y-112971621D01*
X114120899Y-113049781D01*
X114243352Y-113147981D01*
X114295725Y-113213998D01*
X114355004Y-113312835D01*
X114405773Y-113421032D01*
X114441229Y-113523823D01*
X114454569Y-113606440D01*
X114451436Y-113646046D01*
X114425437Y-113749169D01*
X114378904Y-113862727D01*
X114318854Y-113971042D01*
X114252301Y-114058438D01*
X114231817Y-114079227D01*
X114097047Y-114183239D01*
X113936081Y-114263380D01*
X113762891Y-114312401D01*
X113652471Y-114328698D01*
X113464731Y-114341966D01*
X113284369Y-114337773D01*
X113118653Y-114317191D01*
X112974848Y-114281291D01*
X112860223Y-114231145D01*
X112782042Y-114167822D01*
X112779279Y-114163853D01*
X112765040Y-114113176D01*
X112756525Y-114018252D01*
X112753694Y-113878704D01*
X112755422Y-113753683D01*
X112764903Y-113658495D01*
X112788387Y-113594002D01*
X112832120Y-113554722D01*
X112902350Y-113535175D01*
X113005324Y-113529877D01*
X113147288Y-113533349D01*
X113244963Y-113539400D01*
X113345803Y-113555858D01*
X113411081Y-113584090D01*
X113446154Y-113626751D01*
X113456383Y-113686496D01*
X113456169Y-113695619D01*
X113438687Y-113765518D01*
X113390454Y-113812561D01*
X113307555Y-113839079D01*
X113186078Y-113847400D01*
X113048516Y-113847400D01*
X113048516Y-113924447D01*
X113048617Y-113942799D01*
X113053078Y-113977455D01*
X113071695Y-113998135D01*
X113114647Y-114012072D01*
X113192114Y-114026501D01*
X113203111Y-114028377D01*
X113397878Y-114048272D01*
X113578664Y-114042408D01*
X113741202Y-114012816D01*
X113881222Y-113961527D01*
X113994455Y-113890571D01*
X114076632Y-113801979D01*
X114123484Y-113697782D01*
X114130741Y-113580011D01*
X114119654Y-113521963D01*
X114066049Y-113409685D01*
X113973259Y-113317958D01*
X113842716Y-113247975D01*
X113675851Y-113200929D01*
X113626282Y-113191992D01*
X113446827Y-113170899D01*
X113286499Y-113173369D01*
X113129617Y-113199355D01*
X113059016Y-113212994D01*
X112967735Y-113215039D01*
X112904826Y-113189864D01*
X112864339Y-113136051D01*
X112851514Y-113079304D01*
X112870572Y-113016577D01*
X112889313Y-112989607D01*
X112958087Y-112942334D01*
X113063801Y-112906431D01*
X113201446Y-112883335D01*
X113366016Y-112874483D01*
X113561183Y-112882492D01*
G36*
X121893658Y-113406546D02*
G01*
X121893158Y-113609275D01*
X121893079Y-113761273D01*
X121892567Y-113917788D01*
X121891273Y-114038343D01*
X121888854Y-114128198D01*
X121884964Y-114192609D01*
X121879258Y-114236834D01*
X121871393Y-114266131D01*
X121861022Y-114285758D01*
X121847801Y-114300972D01*
X121833805Y-114313495D01*
X121807693Y-114328161D01*
X121769226Y-114337710D01*
X121710155Y-114343210D01*
X121622233Y-114345727D01*
X121497210Y-114346329D01*
X121398880Y-114345575D01*
X121184207Y-114336678D01*
X121004955Y-114316413D01*
X120854691Y-114283089D01*
X120726981Y-114235015D01*
X120615392Y-114170500D01*
X120513490Y-114087856D01*
X120501460Y-114076098D01*
X120427397Y-113978648D01*
X120364920Y-113856488D01*
X120321763Y-113727428D01*
X120311154Y-113649595D01*
X120606903Y-113649595D01*
X120643630Y-113751920D01*
X120703236Y-113844164D01*
X120797047Y-113929362D01*
X120920373Y-113989233D01*
X121079373Y-114027675D01*
X121082366Y-114028154D01*
X121180745Y-114039789D01*
X121298657Y-114048107D01*
X121411239Y-114051336D01*
X121598337Y-114051508D01*
X121598337Y-113167043D01*
X121445257Y-113167014D01*
X121439174Y-113167033D01*
X121336478Y-113170979D01*
X121215736Y-113180472D01*
X121101812Y-113193587D01*
X121001450Y-113212262D01*
X120851279Y-113265033D01*
X120735747Y-113343982D01*
X120652375Y-113450525D01*
X120609751Y-113553515D01*
X120606903Y-113649595D01*
X120311154Y-113649595D01*
X120305658Y-113609275D01*
X120308228Y-113566653D01*
X120332962Y-113451309D01*
X120378221Y-113330952D01*
X120436942Y-113222371D01*
X120502064Y-113142354D01*
X120541322Y-113108156D01*
X120651234Y-113029431D01*
X120772379Y-112968903D01*
X120911389Y-112924786D01*
X121074899Y-112895291D01*
X121269542Y-112878634D01*
X121501953Y-112873026D01*
X121581270Y-112872220D01*
X121673100Y-112871390D01*
X121745021Y-112875015D01*
X121799444Y-112887635D01*
X121838783Y-112913792D01*
X121865451Y-112958026D01*
X121881859Y-113024877D01*
X121890422Y-113118888D01*
X121891621Y-113167043D01*
X121893550Y-113244597D01*
X121893658Y-113406546D01*
G37*
X121893658Y-113406546D02*
X121893158Y-113609275D01*
X121893079Y-113761273D01*
X121892567Y-113917788D01*
X121891273Y-114038343D01*
X121888854Y-114128198D01*
X121884964Y-114192609D01*
X121879258Y-114236834D01*
X121871393Y-114266131D01*
X121861022Y-114285758D01*
X121847801Y-114300972D01*
X121833805Y-114313495D01*
X121807693Y-114328161D01*
X121769226Y-114337710D01*
X121710155Y-114343210D01*
X121622233Y-114345727D01*
X121497210Y-114346329D01*
X121398880Y-114345575D01*
X121184207Y-114336678D01*
X121004955Y-114316413D01*
X120854691Y-114283089D01*
X120726981Y-114235015D01*
X120615392Y-114170500D01*
X120513490Y-114087856D01*
X120501460Y-114076098D01*
X120427397Y-113978648D01*
X120364920Y-113856488D01*
X120321763Y-113727428D01*
X120311154Y-113649595D01*
X120606903Y-113649595D01*
X120643630Y-113751920D01*
X120703236Y-113844164D01*
X120797047Y-113929362D01*
X120920373Y-113989233D01*
X121079373Y-114027675D01*
X121082366Y-114028154D01*
X121180745Y-114039789D01*
X121298657Y-114048107D01*
X121411239Y-114051336D01*
X121598337Y-114051508D01*
X121598337Y-113167043D01*
X121445257Y-113167014D01*
X121439174Y-113167033D01*
X121336478Y-113170979D01*
X121215736Y-113180472D01*
X121101812Y-113193587D01*
X121001450Y-113212262D01*
X120851279Y-113265033D01*
X120735747Y-113343982D01*
X120652375Y-113450525D01*
X120609751Y-113553515D01*
X120606903Y-113649595D01*
X120311154Y-113649595D01*
X120305658Y-113609275D01*
X120308228Y-113566653D01*
X120332962Y-113451309D01*
X120378221Y-113330952D01*
X120436942Y-113222371D01*
X120502064Y-113142354D01*
X120541322Y-113108156D01*
X120651234Y-113029431D01*
X120772379Y-112968903D01*
X120911389Y-112924786D01*
X121074899Y-112895291D01*
X121269542Y-112878634D01*
X121501953Y-112873026D01*
X121581270Y-112872220D01*
X121673100Y-112871390D01*
X121745021Y-112875015D01*
X121799444Y-112887635D01*
X121838783Y-112913792D01*
X121865451Y-112958026D01*
X121881859Y-113024877D01*
X121890422Y-113118888D01*
X121891621Y-113167043D01*
X121893550Y-113244597D01*
X121893658Y-113406546D01*
G36*
X115339293Y-100040240D02*
G01*
X115549206Y-100091672D01*
X115748180Y-100183982D01*
X115929945Y-100317186D01*
X116088231Y-100491296D01*
X116216766Y-100706329D01*
X116251226Y-100782080D01*
X116279143Y-100858859D01*
X116294807Y-100935615D01*
X116301673Y-101030554D01*
X116303195Y-101161880D01*
X116302275Y-101271186D01*
X116296732Y-101371641D01*
X116283142Y-101450016D01*
X116258110Y-101524311D01*
X116218245Y-101612525D01*
X116206713Y-101636033D01*
X116070408Y-101851289D01*
X115898974Y-102028396D01*
X115697278Y-102163197D01*
X115470184Y-102251536D01*
X115353660Y-102276188D01*
X115117268Y-102287723D01*
X114888307Y-102250398D01*
X114673491Y-102168039D01*
X114479535Y-102044473D01*
X114313151Y-101883528D01*
X114181055Y-101689030D01*
X114089960Y-101464805D01*
X114056631Y-101281311D01*
X114053628Y-101078817D01*
X114080735Y-100881849D01*
X114136661Y-100711235D01*
X114201280Y-100589257D01*
X114345136Y-100395731D01*
X114515678Y-100242995D01*
X114706635Y-100131063D01*
X114911737Y-100059950D01*
X115124714Y-100029671D01*
X115339293Y-100040240D01*
G37*
X115339293Y-100040240D02*
X115549206Y-100091672D01*
X115748180Y-100183982D01*
X115929945Y-100317186D01*
X116088231Y-100491296D01*
X116216766Y-100706329D01*
X116251226Y-100782080D01*
X116279143Y-100858859D01*
X116294807Y-100935615D01*
X116301673Y-101030554D01*
X116303195Y-101161880D01*
X116302275Y-101271186D01*
X116296732Y-101371641D01*
X116283142Y-101450016D01*
X116258110Y-101524311D01*
X116218245Y-101612525D01*
X116206713Y-101636033D01*
X116070408Y-101851289D01*
X115898974Y-102028396D01*
X115697278Y-102163197D01*
X115470184Y-102251536D01*
X115353660Y-102276188D01*
X115117268Y-102287723D01*
X114888307Y-102250398D01*
X114673491Y-102168039D01*
X114479535Y-102044473D01*
X114313151Y-101883528D01*
X114181055Y-101689030D01*
X114089960Y-101464805D01*
X114056631Y-101281311D01*
X114053628Y-101078817D01*
X114080735Y-100881849D01*
X114136661Y-100711235D01*
X114201280Y-100589257D01*
X114345136Y-100395731D01*
X114515678Y-100242995D01*
X114706635Y-100131063D01*
X114911737Y-100059950D01*
X115124714Y-100029671D01*
X115339293Y-100040240D01*
G36*
X115282807Y-112881054D02*
G01*
X115351421Y-112927887D01*
X115407087Y-112983553D01*
X115407087Y-113612452D01*
X115407005Y-113781263D01*
X115406485Y-113930369D01*
X115405138Y-114044380D01*
X115402571Y-114128697D01*
X115398395Y-114188718D01*
X115392218Y-114229844D01*
X115383650Y-114257473D01*
X115372300Y-114277006D01*
X115357777Y-114293840D01*
X115294569Y-114336960D01*
X115223924Y-114340509D01*
X115157623Y-114300972D01*
X115146962Y-114289182D01*
X115136014Y-114270933D01*
X115127645Y-114244131D01*
X115121509Y-114203519D01*
X115117262Y-114143838D01*
X115114559Y-114059830D01*
X115113055Y-113946239D01*
X115112406Y-113797807D01*
X115112266Y-113609275D01*
X115112345Y-113457277D01*
X115112857Y-113300763D01*
X115114151Y-113180207D01*
X115116570Y-113090353D01*
X115120460Y-113025942D01*
X115126166Y-112981717D01*
X115134032Y-112952420D01*
X115144402Y-112932793D01*
X115157623Y-112917579D01*
X115216250Y-112879367D01*
X115282807Y-112881054D01*
G37*
X115282807Y-112881054D02*
X115351421Y-112927887D01*
X115407087Y-112983553D01*
X115407087Y-113612452D01*
X115407005Y-113781263D01*
X115406485Y-113930369D01*
X115405138Y-114044380D01*
X115402571Y-114128697D01*
X115398395Y-114188718D01*
X115392218Y-114229844D01*
X115383650Y-114257473D01*
X115372300Y-114277006D01*
X115357777Y-114293840D01*
X115294569Y-114336960D01*
X115223924Y-114340509D01*
X115157623Y-114300972D01*
X115146962Y-114289182D01*
X115136014Y-114270933D01*
X115127645Y-114244131D01*
X115121509Y-114203519D01*
X115117262Y-114143838D01*
X115114559Y-114059830D01*
X115113055Y-113946239D01*
X115112406Y-113797807D01*
X115112266Y-113609275D01*
X115112345Y-113457277D01*
X115112857Y-113300763D01*
X115114151Y-113180207D01*
X115116570Y-113090353D01*
X115120460Y-113025942D01*
X115126166Y-112981717D01*
X115134032Y-112952420D01*
X115144402Y-112932793D01*
X115157623Y-112917579D01*
X115216250Y-112879367D01*
X115282807Y-112881054D01*
G36*
X101830149Y-112891129D02*
G01*
X101866230Y-112928316D01*
X101907615Y-112990757D01*
X101957501Y-113082535D01*
X102019085Y-113207736D01*
X102095564Y-113370445D01*
X102124962Y-113433492D01*
X102184725Y-113560422D01*
X102237148Y-113670122D01*
X102279324Y-113756599D01*
X102308347Y-113813860D01*
X102321310Y-113835912D01*
X102324040Y-113834745D01*
X102344113Y-113806726D01*
X102378849Y-113747386D01*
X102424245Y-113663781D01*
X102476293Y-113562964D01*
X102508381Y-113499706D01*
X102566539Y-113388504D01*
X102611717Y-113310122D01*
X102648311Y-113258940D01*
X102680717Y-113229338D01*
X102713331Y-113215698D01*
X102750549Y-113212400D01*
X102771648Y-113213355D01*
X102804024Y-113221807D01*
X102834789Y-113243631D01*
X102868133Y-113284358D01*
X102908249Y-113349517D01*
X102959328Y-113444641D01*
X103025562Y-113575258D01*
X103045114Y-113613940D01*
X103094248Y-113707694D01*
X103134900Y-113780342D01*
X103163291Y-113825319D01*
X103175644Y-113836061D01*
X103178391Y-113829490D01*
X103197223Y-113787484D01*
X103231096Y-113713277D01*
X103277133Y-113613129D01*
X103332461Y-113493301D01*
X103394206Y-113360052D01*
X103447874Y-113245100D01*
X103507385Y-113120569D01*
X103553733Y-113028681D01*
X103589851Y-112964313D01*
X103618673Y-112922340D01*
X103643134Y-112897636D01*
X103666169Y-112885078D01*
X103685072Y-112879267D01*
X103735507Y-112878969D01*
X103790034Y-112909791D01*
X103792647Y-112911769D01*
X103837012Y-112957243D01*
X103859208Y-113001891D01*
X103859301Y-113003176D01*
X103850178Y-113038658D01*
X103824335Y-113108098D01*
X103784641Y-113205220D01*
X103733967Y-113323746D01*
X103675183Y-113457399D01*
X103611159Y-113599903D01*
X103544766Y-113744981D01*
X103478874Y-113886355D01*
X103416353Y-114017749D01*
X103360074Y-114132885D01*
X103312907Y-114225487D01*
X103277722Y-114289278D01*
X103257389Y-114317981D01*
X103188267Y-114344838D01*
X103104500Y-114332058D01*
X103093723Y-114322622D01*
X103061924Y-114278122D01*
X103017322Y-114204273D01*
X102964252Y-114108412D01*
X102907050Y-113997878D01*
X102746791Y-113677969D01*
X102599763Y-113972462D01*
X102580285Y-114011215D01*
X102526087Y-114116378D01*
X102477815Y-114206357D01*
X102440119Y-114272621D01*
X102417647Y-114306641D01*
X102415345Y-114309139D01*
X102358853Y-114339849D01*
X102288415Y-114343231D01*
X102226056Y-114317981D01*
X102221182Y-114312257D01*
X102196552Y-114270822D01*
X102156902Y-114195385D01*
X102104861Y-114091266D01*
X102043062Y-113963786D01*
X101974134Y-113818264D01*
X101900709Y-113660022D01*
X101860047Y-113571381D01*
X101786173Y-113409205D01*
X101729006Y-113281280D01*
X101686769Y-113182974D01*
X101657685Y-113109657D01*
X101639978Y-113056697D01*
X101631871Y-113019466D01*
X101631586Y-112993330D01*
X101637348Y-112973661D01*
X101666793Y-112931710D01*
X101720235Y-112890926D01*
X101721754Y-112890238D01*
X101761108Y-112876174D01*
X101796174Y-112875110D01*
X101830149Y-112891129D01*
G37*
X101830149Y-112891129D02*
X101866230Y-112928316D01*
X101907615Y-112990757D01*
X101957501Y-113082535D01*
X102019085Y-113207736D01*
X102095564Y-113370445D01*
X102124962Y-113433492D01*
X102184725Y-113560422D01*
X102237148Y-113670122D01*
X102279324Y-113756599D01*
X102308347Y-113813860D01*
X102321310Y-113835912D01*
X102324040Y-113834745D01*
X102344113Y-113806726D01*
X102378849Y-113747386D01*
X102424245Y-113663781D01*
X102476293Y-113562964D01*
X102508381Y-113499706D01*
X102566539Y-113388504D01*
X102611717Y-113310122D01*
X102648311Y-113258940D01*
X102680717Y-113229338D01*
X102713331Y-113215698D01*
X102750549Y-113212400D01*
X102771648Y-113213355D01*
X102804024Y-113221807D01*
X102834789Y-113243631D01*
X102868133Y-113284358D01*
X102908249Y-113349517D01*
X102959328Y-113444641D01*
X103025562Y-113575258D01*
X103045114Y-113613940D01*
X103094248Y-113707694D01*
X103134900Y-113780342D01*
X103163291Y-113825319D01*
X103175644Y-113836061D01*
X103178391Y-113829490D01*
X103197223Y-113787484D01*
X103231096Y-113713277D01*
X103277133Y-113613129D01*
X103332461Y-113493301D01*
X103394206Y-113360052D01*
X103447874Y-113245100D01*
X103507385Y-113120569D01*
X103553733Y-113028681D01*
X103589851Y-112964313D01*
X103618673Y-112922340D01*
X103643134Y-112897636D01*
X103666169Y-112885078D01*
X103685072Y-112879267D01*
X103735507Y-112878969D01*
X103790034Y-112909791D01*
X103792647Y-112911769D01*
X103837012Y-112957243D01*
X103859208Y-113001891D01*
X103859301Y-113003176D01*
X103850178Y-113038658D01*
X103824335Y-113108098D01*
X103784641Y-113205220D01*
X103733967Y-113323746D01*
X103675183Y-113457399D01*
X103611159Y-113599903D01*
X103544766Y-113744981D01*
X103478874Y-113886355D01*
X103416353Y-114017749D01*
X103360074Y-114132885D01*
X103312907Y-114225487D01*
X103277722Y-114289278D01*
X103257389Y-114317981D01*
X103188267Y-114344838D01*
X103104500Y-114332058D01*
X103093723Y-114322622D01*
X103061924Y-114278122D01*
X103017322Y-114204273D01*
X102964252Y-114108412D01*
X102907050Y-113997878D01*
X102746791Y-113677969D01*
X102599763Y-113972462D01*
X102580285Y-114011215D01*
X102526087Y-114116378D01*
X102477815Y-114206357D01*
X102440119Y-114272621D01*
X102417647Y-114306641D01*
X102415345Y-114309139D01*
X102358853Y-114339849D01*
X102288415Y-114343231D01*
X102226056Y-114317981D01*
X102221182Y-114312257D01*
X102196552Y-114270822D01*
X102156902Y-114195385D01*
X102104861Y-114091266D01*
X102043062Y-113963786D01*
X101974134Y-113818264D01*
X101900709Y-113660022D01*
X101860047Y-113571381D01*
X101786173Y-113409205D01*
X101729006Y-113281280D01*
X101686769Y-113182974D01*
X101657685Y-113109657D01*
X101639978Y-113056697D01*
X101631871Y-113019466D01*
X101631586Y-112993330D01*
X101637348Y-112973661D01*
X101666793Y-112931710D01*
X101720235Y-112890926D01*
X101721754Y-112890238D01*
X101761108Y-112876174D01*
X101796174Y-112875110D01*
X101830149Y-112891129D01*
G36*
X107642906Y-114166188D02*
G01*
X107637022Y-114212235D01*
X107628832Y-114243979D01*
X107617955Y-114266925D01*
X107604012Y-114286574D01*
X107557009Y-114346329D01*
X107224146Y-114345136D01*
X107154244Y-114344537D01*
X106956398Y-114337645D01*
X106793752Y-114322212D01*
X106658964Y-114296985D01*
X106544689Y-114260714D01*
X106443586Y-114212148D01*
X106436839Y-114208297D01*
X106320699Y-114134533D01*
X106235613Y-114060271D01*
X106169687Y-113972912D01*
X106111027Y-113859855D01*
X106102425Y-113840539D01*
X106057068Y-113713603D01*
X106045548Y-113622086D01*
X106345371Y-113622086D01*
X106356646Y-113671764D01*
X106368150Y-113703661D01*
X106434303Y-113824013D01*
X106529403Y-113915928D01*
X106657503Y-113982494D01*
X106822655Y-114026800D01*
X106828268Y-114027809D01*
X106921252Y-114039787D01*
X107034548Y-114048280D01*
X107144913Y-114051508D01*
X107333516Y-114051508D01*
X107333516Y-113167043D01*
X107157757Y-113167943D01*
X107023320Y-113172918D01*
X106837699Y-113195521D01*
X106678361Y-113234774D01*
X106553858Y-113288963D01*
X106491702Y-113330605D01*
X106435211Y-113390403D01*
X106388324Y-113475638D01*
X106374006Y-113507713D01*
X106350253Y-113573006D01*
X106345371Y-113622086D01*
X106045548Y-113622086D01*
X106043064Y-113602352D01*
X106060344Y-113491808D01*
X106108843Y-113366989D01*
X106110442Y-113363588D01*
X106191706Y-113224125D01*
X106293527Y-113110422D01*
X106419538Y-113020889D01*
X106573374Y-112953934D01*
X106758667Y-112907969D01*
X106979052Y-112881401D01*
X107238163Y-112872640D01*
X107245338Y-112872630D01*
X107365915Y-112872911D01*
X107450150Y-112874993D01*
X107506629Y-112880204D01*
X107543932Y-112889872D01*
X107570645Y-112905324D01*
X107595350Y-112927887D01*
X107651016Y-112983553D01*
X107651016Y-113605186D01*
X107650965Y-113728947D01*
X107650512Y-113887221D01*
X107649271Y-114009184D01*
X107648152Y-114051508D01*
X107646862Y-114100339D01*
X107642906Y-114166188D01*
G37*
X107642906Y-114166188D02*
X107637022Y-114212235D01*
X107628832Y-114243979D01*
X107617955Y-114266925D01*
X107604012Y-114286574D01*
X107557009Y-114346329D01*
X107224146Y-114345136D01*
X107154244Y-114344537D01*
X106956398Y-114337645D01*
X106793752Y-114322212D01*
X106658964Y-114296985D01*
X106544689Y-114260714D01*
X106443586Y-114212148D01*
X106436839Y-114208297D01*
X106320699Y-114134533D01*
X106235613Y-114060271D01*
X106169687Y-113972912D01*
X106111027Y-113859855D01*
X106102425Y-113840539D01*
X106057068Y-113713603D01*
X106045548Y-113622086D01*
X106345371Y-113622086D01*
X106356646Y-113671764D01*
X106368150Y-113703661D01*
X106434303Y-113824013D01*
X106529403Y-113915928D01*
X106657503Y-113982494D01*
X106822655Y-114026800D01*
X106828268Y-114027809D01*
X106921252Y-114039787D01*
X107034548Y-114048280D01*
X107144913Y-114051508D01*
X107333516Y-114051508D01*
X107333516Y-113167043D01*
X107157757Y-113167943D01*
X107023320Y-113172918D01*
X106837699Y-113195521D01*
X106678361Y-113234774D01*
X106553858Y-113288963D01*
X106491702Y-113330605D01*
X106435211Y-113390403D01*
X106388324Y-113475638D01*
X106374006Y-113507713D01*
X106350253Y-113573006D01*
X106345371Y-113622086D01*
X106045548Y-113622086D01*
X106043064Y-113602352D01*
X106060344Y-113491808D01*
X106108843Y-113366989D01*
X106110442Y-113363588D01*
X106191706Y-113224125D01*
X106293527Y-113110422D01*
X106419538Y-113020889D01*
X106573374Y-112953934D01*
X106758667Y-112907969D01*
X106979052Y-112881401D01*
X107238163Y-112872640D01*
X107245338Y-112872630D01*
X107365915Y-112872911D01*
X107450150Y-112874993D01*
X107506629Y-112880204D01*
X107543932Y-112889872D01*
X107570645Y-112905324D01*
X107595350Y-112927887D01*
X107651016Y-112983553D01*
X107651016Y-113605186D01*
X107650965Y-113728947D01*
X107650512Y-113887221D01*
X107649271Y-114009184D01*
X107648152Y-114051508D01*
X107646862Y-114100339D01*
X107642906Y-114166188D01*
%TO.C,G\u002A\u002A\u002A*%
G36*
X151588694Y-51577755D02*
G01*
X151574132Y-51594405D01*
X151514570Y-51637195D01*
X151428782Y-51678394D01*
X151325730Y-51713380D01*
X151294960Y-51722016D01*
X151224106Y-51742066D01*
X151149749Y-51763255D01*
X151108834Y-51774721D01*
X151029455Y-51795958D01*
X150963991Y-51812314D01*
X150928856Y-51819290D01*
X150824093Y-51830303D01*
X150711518Y-51831371D01*
X150606406Y-51822759D01*
X150524037Y-51804730D01*
X150506522Y-51798272D01*
X150429936Y-51763245D01*
X150361544Y-51723388D01*
X150360462Y-51722638D01*
X150312158Y-51679409D01*
X150251601Y-51611652D01*
X150185723Y-51528534D01*
X150121450Y-51439223D01*
X150065712Y-51352887D01*
X150042627Y-51310359D01*
X150272212Y-51310359D01*
X150292462Y-51416581D01*
X150295354Y-51423751D01*
X150334257Y-51479765D01*
X150394144Y-51530314D01*
X150437510Y-51555598D01*
X150482882Y-51571736D01*
X150539343Y-51578561D01*
X150620830Y-51579070D01*
X150678295Y-51577386D01*
X150756123Y-51571160D01*
X150832072Y-51558457D01*
X150918996Y-51536924D01*
X151029751Y-51504206D01*
X151134618Y-51471913D01*
X150975386Y-51437722D01*
X150852377Y-51406036D01*
X150742593Y-51362293D01*
X150657529Y-51306529D01*
X150589677Y-51234794D01*
X150558955Y-51188696D01*
X150519900Y-51089972D01*
X150508694Y-50975429D01*
X150524203Y-50838197D01*
X150534866Y-50768255D01*
X150539341Y-50707867D01*
X150536271Y-50672354D01*
X150534944Y-50669100D01*
X150522867Y-50657037D01*
X150503205Y-50670872D01*
X150469828Y-50714492D01*
X150433562Y-50769256D01*
X150360788Y-50906461D01*
X150308333Y-51047548D01*
X150278155Y-51184764D01*
X150272212Y-51310359D01*
X150042627Y-51310359D01*
X150025438Y-51278693D01*
X150017386Y-51260012D01*
X149987224Y-51145358D01*
X149980084Y-51019935D01*
X149997348Y-50902247D01*
X150014367Y-50856900D01*
X150074085Y-50763515D01*
X150161914Y-50672382D01*
X150270852Y-50589249D01*
X150393894Y-50519863D01*
X150524037Y-50469975D01*
X150550450Y-50462255D01*
X150620638Y-50441592D01*
X150693916Y-50419876D01*
X150697805Y-50418752D01*
X150770728Y-50404069D01*
X150862496Y-50393652D01*
X150954210Y-50389693D01*
X151009787Y-50391328D01*
X151150450Y-50414260D01*
X151273970Y-50466733D01*
X151386391Y-50551922D01*
X151493759Y-50673000D01*
X151502526Y-50684674D01*
X151562071Y-50776265D01*
X151613775Y-50881638D01*
X151661278Y-51009187D01*
X151708222Y-51167300D01*
X151714468Y-51190638D01*
X151728932Y-51254875D01*
X151732539Y-51307848D01*
X151722803Y-51358090D01*
X151697240Y-51414134D01*
X151661219Y-51471913D01*
X151653365Y-51484511D01*
X151588694Y-51577755D01*
G37*
G36*
X149639204Y-56137089D02*
G01*
X149681381Y-56162515D01*
X149733061Y-56206039D01*
X149784817Y-56258474D01*
X149827219Y-56310631D01*
X149850838Y-56353323D01*
X149853953Y-56366627D01*
X149846037Y-56402116D01*
X149807954Y-56441012D01*
X149806155Y-56442459D01*
X149763433Y-56469522D01*
X149714843Y-56481114D01*
X149644129Y-56481225D01*
X149536585Y-56475923D01*
X149530713Y-56351878D01*
X149530943Y-56285516D01*
X149545903Y-56202997D01*
X149577868Y-56151664D01*
X149625756Y-56134000D01*
X149639204Y-56137089D01*
G37*
G36*
X151681824Y-53146590D02*
G01*
X151743914Y-53188577D01*
X151771865Y-53214797D01*
X151803957Y-53256667D01*
X151826331Y-53310142D01*
X151845925Y-53388847D01*
X151861057Y-53460049D01*
X151890053Y-53600777D01*
X151912686Y-53718184D01*
X151930957Y-53822474D01*
X151937846Y-53860728D01*
X151949456Y-53913419D01*
X151958627Y-53941501D01*
X151965531Y-53960868D01*
X151977666Y-54009889D01*
X151990776Y-54074489D01*
X152003682Y-54143777D01*
X152028106Y-54269571D01*
X152051894Y-54383189D01*
X152078723Y-54502539D01*
X152095624Y-54577189D01*
X152113124Y-54657198D01*
X152125653Y-54717462D01*
X152141701Y-54791934D01*
X152174390Y-54923793D01*
X152214555Y-55069567D01*
X152258578Y-55215693D01*
X152263239Y-55229995D01*
X152297299Y-55313267D01*
X152344199Y-55394052D01*
X152407938Y-55477095D01*
X152492512Y-55567138D01*
X152601920Y-55668928D01*
X152740159Y-55787208D01*
X152774891Y-55818737D01*
X152829623Y-55891345D01*
X152845749Y-55960887D01*
X152823117Y-56026926D01*
X152769638Y-56080611D01*
X152689548Y-56125316D01*
X152597020Y-56152428D01*
X152568185Y-56159291D01*
X152533608Y-56178570D01*
X152500008Y-56216294D01*
X152458362Y-56280820D01*
X152417590Y-56340959D01*
X152367184Y-56401664D01*
X152323173Y-56441731D01*
X152300306Y-56456359D01*
X152237550Y-56482776D01*
X152179086Y-56480492D01*
X152116902Y-56447830D01*
X152042984Y-56383116D01*
X152041514Y-56381665D01*
X151985107Y-56323109D01*
X151936419Y-56267654D01*
X151905845Y-56227123D01*
X151872740Y-56173708D01*
X151783496Y-56241777D01*
X151744407Y-56269033D01*
X151691390Y-56298429D01*
X151654391Y-56309847D01*
X151634081Y-56305451D01*
X151585728Y-56273262D01*
X151531933Y-56216317D01*
X151478622Y-56142349D01*
X151431721Y-56059088D01*
X151397155Y-55974266D01*
X151392759Y-55944235D01*
X151408243Y-55871999D01*
X151455257Y-55779210D01*
X151534151Y-55665077D01*
X151560757Y-55630407D01*
X151608524Y-55570110D01*
X151645728Y-55525682D01*
X151665992Y-55504872D01*
X151671823Y-55498587D01*
X151683172Y-55459973D01*
X151685744Y-55402802D01*
X151679617Y-55341649D01*
X151664868Y-55291090D01*
X151664140Y-55289533D01*
X151645678Y-55246909D01*
X151619043Y-55182008D01*
X151589741Y-55108231D01*
X151558729Y-55030380D01*
X151525246Y-54949006D01*
X151498219Y-54885986D01*
X151489513Y-54866235D01*
X151455619Y-54786687D01*
X151424367Y-54710139D01*
X151399584Y-54650133D01*
X151364250Y-54568483D01*
X151327846Y-54487396D01*
X151323189Y-54477220D01*
X151294741Y-54413468D01*
X151274670Y-54365775D01*
X151267070Y-54343810D01*
X151266736Y-54341368D01*
X151256921Y-54312353D01*
X151237740Y-54266145D01*
X151181211Y-54133944D01*
X151130836Y-54004308D01*
X151130565Y-54003562D01*
X151106080Y-53938338D01*
X151081952Y-53877308D01*
X151059245Y-53821098D01*
X151031692Y-53745309D01*
X151015592Y-53683297D01*
X151007778Y-53621398D01*
X151005077Y-53545947D01*
X151006574Y-53471550D01*
X151019473Y-53395633D01*
X151048289Y-53349110D01*
X151096672Y-53327028D01*
X151168272Y-53324433D01*
X151257293Y-53330231D01*
X151313160Y-53506077D01*
X151325863Y-53545849D01*
X151351111Y-53623657D01*
X151371732Y-53685613D01*
X151384186Y-53721000D01*
X151397173Y-53757918D01*
X151419396Y-53825987D01*
X151446851Y-53913000D01*
X151476494Y-54009179D01*
X151505279Y-54104746D01*
X151530164Y-54189923D01*
X151533832Y-54202706D01*
X151558268Y-54283760D01*
X151583066Y-54356040D01*
X151612512Y-54430477D01*
X151650889Y-54518000D01*
X151702483Y-54629539D01*
X151742528Y-54716571D01*
X151804373Y-54861670D01*
X151848811Y-54985298D01*
X151878077Y-55095082D01*
X151894404Y-55198646D01*
X151900029Y-55303616D01*
X151898539Y-55401554D01*
X151888259Y-55480782D01*
X151864275Y-55545856D01*
X151821753Y-55609545D01*
X151755865Y-55684616D01*
X151728578Y-55714869D01*
X151651619Y-55817564D01*
X151610921Y-55907818D01*
X151606182Y-55986575D01*
X151637098Y-56054779D01*
X151673848Y-56102557D01*
X151719766Y-56046479D01*
X151732275Y-56031340D01*
X151807661Y-55946002D01*
X151874918Y-55879667D01*
X151929292Y-55836680D01*
X151966029Y-55821385D01*
X151979684Y-55822370D01*
X152012853Y-55836859D01*
X152042791Y-55872993D01*
X152073222Y-55936312D01*
X152107870Y-56032354D01*
X152115848Y-56055661D01*
X152153204Y-56145224D01*
X152188660Y-56196260D01*
X152222604Y-56209166D01*
X152255418Y-56184337D01*
X152256875Y-56182304D01*
X152279066Y-56135420D01*
X152294432Y-56076875D01*
X152294531Y-56076252D01*
X152306242Y-56016244D01*
X152323753Y-55978476D01*
X152355390Y-55957360D01*
X152409481Y-55947310D01*
X152494352Y-55942739D01*
X152524422Y-55941361D01*
X152616720Y-55931142D01*
X152671814Y-55912784D01*
X152690636Y-55885804D01*
X152674116Y-55849722D01*
X152662537Y-55839622D01*
X152618249Y-55811727D01*
X152553060Y-55776415D01*
X152476949Y-55738564D01*
X152399895Y-55703048D01*
X152331877Y-55674746D01*
X152282876Y-55658533D01*
X152249658Y-55640050D01*
X152209197Y-55592656D01*
X152178628Y-55531403D01*
X152166531Y-55470183D01*
X152163813Y-55448534D01*
X152149194Y-55422215D01*
X152146651Y-55420034D01*
X152131609Y-55389892D01*
X152118526Y-55340503D01*
X152117290Y-55334128D01*
X152103509Y-55278028D01*
X152089070Y-55237710D01*
X152084105Y-55226134D01*
X152067359Y-55179538D01*
X152044659Y-55110758D01*
X152019452Y-55030077D01*
X152012703Y-55007937D01*
X151981319Y-54905873D01*
X151949216Y-54802612D01*
X151922388Y-54717462D01*
X151898710Y-54642907D01*
X151852417Y-54495199D01*
X151817667Y-54380958D01*
X151793738Y-54297716D01*
X151779910Y-54243001D01*
X151775461Y-54214345D01*
X151773272Y-54198380D01*
X151755907Y-54170385D01*
X151745196Y-54157429D01*
X151736354Y-54119769D01*
X151731467Y-54087549D01*
X151716336Y-54028769D01*
X151694529Y-53959730D01*
X151674752Y-53899720D01*
X151652380Y-53825544D01*
X151637877Y-53769847D01*
X151636367Y-53763026D01*
X151622746Y-53705980D01*
X151603239Y-53628522D01*
X151581539Y-53545368D01*
X151559953Y-53450072D01*
X151544416Y-53350930D01*
X151536780Y-53261316D01*
X151537830Y-53190624D01*
X151548350Y-53148247D01*
X151572111Y-53129196D01*
X151621330Y-53126131D01*
X151681824Y-53146590D01*
G37*
G36*
X150154312Y-56732105D02*
G01*
X150212346Y-56762529D01*
X150270137Y-56802771D01*
X150313402Y-56844099D01*
X150318416Y-56850856D01*
X150342841Y-56915490D01*
X150343253Y-56991297D01*
X150321547Y-57063048D01*
X150279618Y-57115509D01*
X150254229Y-57128111D01*
X150222611Y-57124289D01*
X150172113Y-57101175D01*
X150135348Y-57077625D01*
X150074997Y-57017535D01*
X150032021Y-56946895D01*
X150015646Y-56878815D01*
X150019629Y-56841046D01*
X150040683Y-56781918D01*
X150073479Y-56737620D01*
X150110774Y-56720227D01*
X150154312Y-56732105D01*
G37*
G36*
X150253787Y-57264397D02*
G01*
X150275826Y-57314909D01*
X150270306Y-57392171D01*
X150260125Y-57436369D01*
X150248161Y-57465477D01*
X150225808Y-57481394D01*
X150181850Y-57497475D01*
X150150187Y-57508223D01*
X150105971Y-57517387D01*
X150069137Y-57509367D01*
X150020534Y-57482368D01*
X149987039Y-57457079D01*
X149960905Y-57411379D01*
X149972703Y-57363247D01*
X150021868Y-57314083D01*
X150107839Y-57265289D01*
X150138833Y-57252838D01*
X150207138Y-57242938D01*
X150253787Y-57264397D01*
G37*
G36*
X149944242Y-57725070D02*
G01*
X149989148Y-57767039D01*
X149991539Y-57770702D01*
X150010323Y-57805917D01*
X150008852Y-57835765D01*
X149986713Y-57879386D01*
X149984921Y-57882489D01*
X149951919Y-57934732D01*
X149921738Y-57975500D01*
X149913106Y-57984258D01*
X149866132Y-58006880D01*
X149817136Y-58002628D01*
X149781692Y-57971900D01*
X149765182Y-57926246D01*
X149769734Y-57850987D01*
X149812072Y-57776730D01*
X149835905Y-57751978D01*
X149891755Y-57720126D01*
X149944242Y-57725070D01*
G37*
G36*
X154813272Y-54725549D02*
G01*
X154811797Y-54892072D01*
X154809259Y-55033338D01*
X154805439Y-55153177D01*
X154800121Y-55255420D01*
X154793086Y-55343900D01*
X154784117Y-55422446D01*
X154772995Y-55494891D01*
X154759504Y-55565064D01*
X154743426Y-55636798D01*
X154724543Y-55713923D01*
X154722451Y-55722256D01*
X154694549Y-55833731D01*
X154673722Y-55917838D01*
X154657574Y-55984452D01*
X154643709Y-56043445D01*
X154629732Y-56104693D01*
X154602704Y-56217097D01*
X154555138Y-56379474D01*
X154499502Y-56521870D01*
X154431542Y-56650950D01*
X154347005Y-56773379D01*
X154241637Y-56895820D01*
X154111183Y-57024938D01*
X153951390Y-57167398D01*
X153924955Y-57190321D01*
X153875583Y-57235831D01*
X153850083Y-57266823D01*
X153843600Y-57290383D01*
X153851282Y-57313600D01*
X153855551Y-57321602D01*
X153888918Y-57377818D01*
X153938100Y-57454735D01*
X153997824Y-57544695D01*
X154062819Y-57640037D01*
X154127814Y-57733105D01*
X154187537Y-57816239D01*
X154236716Y-57881779D01*
X154270082Y-57922069D01*
X154341874Y-57998133D01*
X154402486Y-57920874D01*
X154428006Y-57889649D01*
X154521242Y-57788563D01*
X154631127Y-57683512D01*
X154744881Y-57586278D01*
X154849721Y-57508643D01*
X154916075Y-57466427D01*
X154969791Y-57439140D01*
X155014570Y-57427552D01*
X155061853Y-57427274D01*
X155077335Y-57428548D01*
X155122985Y-57437633D01*
X155148814Y-57461416D01*
X155169631Y-57511462D01*
X155180296Y-57550168D01*
X155193519Y-57654708D01*
X155193541Y-57666037D01*
X155193757Y-57778822D01*
X155181304Y-57910817D01*
X155156451Y-58039000D01*
X155152883Y-58053136D01*
X155132103Y-58136547D01*
X155113796Y-58211659D01*
X155101571Y-58263693D01*
X155100634Y-58267795D01*
X155068442Y-58370336D01*
X155018585Y-58484801D01*
X154955162Y-58605194D01*
X154882268Y-58725520D01*
X154803999Y-58839781D01*
X154724452Y-58941983D01*
X154647723Y-59026129D01*
X154577908Y-59086224D01*
X154519104Y-59116271D01*
X154487219Y-59116907D01*
X154442318Y-59097417D01*
X154380745Y-59052289D01*
X154328287Y-59006572D01*
X154250072Y-58933504D01*
X154152865Y-58839379D01*
X154040556Y-58728168D01*
X153917032Y-58603836D01*
X153786182Y-58470353D01*
X153651892Y-58331687D01*
X153518052Y-58191804D01*
X153388550Y-58054673D01*
X153267273Y-57924262D01*
X153158109Y-57804539D01*
X153124270Y-57768072D01*
X153094335Y-57743383D01*
X153070692Y-57740407D01*
X153042642Y-57754510D01*
X153022689Y-57766429D01*
X152936649Y-57811530D01*
X152828547Y-57861664D01*
X152710113Y-57911800D01*
X152593076Y-57956906D01*
X152489164Y-57991950D01*
X152482971Y-57993830D01*
X152406983Y-58017058D01*
X152332736Y-58039968D01*
X152242867Y-58066431D01*
X152038862Y-58118346D01*
X151814568Y-58165875D01*
X151735291Y-58182687D01*
X151687865Y-58199820D01*
X151671027Y-58222397D01*
X151680671Y-58256089D01*
X151712688Y-58306567D01*
X151755541Y-58366824D01*
X151794177Y-58410512D01*
X151829343Y-58429816D01*
X151870383Y-58429431D01*
X151926639Y-58414049D01*
X151945275Y-58408202D01*
X152073695Y-58372661D01*
X152185757Y-58349881D01*
X152271968Y-58341847D01*
X152322981Y-58346717D01*
X152397265Y-58367858D01*
X152460331Y-58400339D01*
X152498235Y-58438222D01*
X152510597Y-58479238D01*
X152517364Y-58555083D01*
X152515517Y-58650139D01*
X152505327Y-58754140D01*
X152487070Y-58856820D01*
X152477099Y-58900751D01*
X152461261Y-58965670D01*
X152445406Y-59018324D01*
X152425234Y-59070552D01*
X152396444Y-59134191D01*
X152354736Y-59221077D01*
X152267837Y-59387374D01*
X152134832Y-59598525D01*
X151992878Y-59776939D01*
X151844198Y-59919577D01*
X151816202Y-59940663D01*
X151738627Y-59977436D01*
X151663280Y-59977780D01*
X151586541Y-59941132D01*
X151504792Y-59866932D01*
X151478610Y-59836924D01*
X151432153Y-59779613D01*
X151381143Y-59713367D01*
X151331378Y-59646076D01*
X151288653Y-59585628D01*
X151258767Y-59539914D01*
X151247516Y-59516822D01*
X151247330Y-59513725D01*
X151232851Y-59491359D01*
X151232560Y-59491204D01*
X151218050Y-59470476D01*
X151191271Y-59422179D01*
X151155956Y-59353999D01*
X151115836Y-59273621D01*
X151074642Y-59188731D01*
X151036107Y-59107014D01*
X151003962Y-59036156D01*
X150981938Y-58983843D01*
X150973767Y-58957760D01*
X150969319Y-58943867D01*
X150952624Y-58902651D01*
X150927788Y-58845496D01*
X150912546Y-58811088D01*
X150878285Y-58733001D01*
X150837976Y-58640498D01*
X150797480Y-58547000D01*
X150783855Y-58515503D01*
X150743443Y-58424606D01*
X150712586Y-58363510D01*
X150687025Y-58327308D01*
X150662499Y-58311094D01*
X150634748Y-58309961D01*
X150599510Y-58319001D01*
X150525544Y-58340117D01*
X150421789Y-58367025D01*
X150303209Y-58395806D01*
X150181850Y-58423448D01*
X150130042Y-58431916D01*
X150040304Y-58440786D01*
X149935746Y-58446771D01*
X149829887Y-58448891D01*
X149741249Y-58448471D01*
X149666051Y-58446080D01*
X149609666Y-58439672D01*
X149561217Y-58427180D01*
X149509825Y-58406536D01*
X149444610Y-58375673D01*
X149419633Y-58363784D01*
X149349719Y-58332634D01*
X149294178Y-58310923D01*
X149263261Y-58302770D01*
X149255726Y-58301141D01*
X149218193Y-58284659D01*
X149162241Y-58255210D01*
X149098146Y-58218750D01*
X149036183Y-58181234D01*
X148986628Y-58148618D01*
X148959757Y-58126859D01*
X148955575Y-58122866D01*
X148926287Y-58100296D01*
X148881543Y-58068880D01*
X148840619Y-58039517D01*
X148775273Y-57990213D01*
X148699011Y-57931170D01*
X148622005Y-57870350D01*
X148554428Y-57815716D01*
X148506449Y-57775231D01*
X148497245Y-57767144D01*
X148458166Y-57733069D01*
X148402081Y-57684353D01*
X148337846Y-57628693D01*
X148313506Y-57607111D01*
X148250018Y-57546074D01*
X148198179Y-57489708D01*
X148167372Y-57447962D01*
X148153340Y-57424423D01*
X148127622Y-57397034D01*
X148093254Y-57387499D01*
X148040891Y-57394380D01*
X147961189Y-57416239D01*
X147947977Y-57419945D01*
X147860609Y-57436089D01*
X147742754Y-57446111D01*
X147590287Y-57450390D01*
X147530550Y-57450528D01*
X147405994Y-57446569D01*
X147309107Y-57434977D01*
X147231962Y-57413877D01*
X147166635Y-57381394D01*
X147105199Y-57335653D01*
X147090410Y-57322059D01*
X147027423Y-57235640D01*
X146985173Y-57126071D01*
X146966487Y-57003255D01*
X146974194Y-56877092D01*
X146977666Y-56858586D01*
X146996429Y-56794066D01*
X147028551Y-56738997D01*
X147082982Y-56676911D01*
X147126368Y-56628087D01*
X147155120Y-56587940D01*
X147162043Y-56566204D01*
X147140545Y-56549152D01*
X147094070Y-56520667D01*
X147032826Y-56487060D01*
X146988976Y-56463199D01*
X146868876Y-56383942D01*
X146786960Y-56304258D01*
X146743535Y-56224503D01*
X146738907Y-56145034D01*
X146741694Y-56132588D01*
X146766473Y-56078665D01*
X146814463Y-56026980D01*
X146890474Y-55973251D01*
X146999315Y-55913197D01*
X147113692Y-55854002D01*
X147207044Y-55803669D01*
X147271655Y-55766284D01*
X147304203Y-55743693D01*
X147307343Y-55737074D01*
X147302662Y-55704177D01*
X147284256Y-55661733D01*
X147258447Y-55626000D01*
X147253001Y-55618746D01*
X147228339Y-55583342D01*
X147186987Y-55522878D01*
X147132113Y-55442015D01*
X147066886Y-55345413D01*
X146994475Y-55237733D01*
X146972350Y-55204771D01*
X146889009Y-55080645D01*
X146805284Y-54955994D01*
X146726714Y-54839064D01*
X146658839Y-54738100D01*
X146607200Y-54661349D01*
X146513477Y-54515105D01*
X146414454Y-54335685D01*
X146347120Y-54176366D01*
X146324994Y-54089870D01*
X146607901Y-54089870D01*
X146626688Y-54201600D01*
X146664221Y-54308468D01*
X146685217Y-54349648D01*
X146730015Y-54426961D01*
X146784507Y-54513444D01*
X146841551Y-54598250D01*
X146894007Y-54670528D01*
X146934732Y-54719429D01*
X146945928Y-54731097D01*
X146981872Y-54768657D01*
X147037996Y-54827353D01*
X147110349Y-54903051D01*
X147194978Y-54991615D01*
X147287932Y-55088912D01*
X147341311Y-55144748D01*
X147441319Y-55249155D01*
X147536735Y-55348521D01*
X147621965Y-55437031D01*
X147691415Y-55508871D01*
X147739490Y-55558228D01*
X147787554Y-55607763D01*
X147838505Y-55664695D01*
X147864318Y-55704717D01*
X147866888Y-55733913D01*
X147848111Y-55758367D01*
X147809884Y-55784164D01*
X147723757Y-55834106D01*
X147633250Y-55882744D01*
X147552977Y-55922135D01*
X147490622Y-55948524D01*
X147453870Y-55958154D01*
X147432933Y-55961068D01*
X147405253Y-55977693D01*
X147402806Y-55980472D01*
X147371412Y-55992538D01*
X147320997Y-55997660D01*
X147265675Y-56004246D01*
X147186795Y-56027960D01*
X147114607Y-56062718D01*
X147065289Y-56101924D01*
X147060350Y-56109238D01*
X147044550Y-56155809D01*
X147038181Y-56215273D01*
X147044825Y-56278493D01*
X147068976Y-56323407D01*
X147115761Y-56350371D01*
X147190299Y-56362277D01*
X147297709Y-56362022D01*
X147301832Y-56361842D01*
X147434067Y-56351363D01*
X147540883Y-56331605D01*
X147635007Y-56300239D01*
X147639714Y-56298372D01*
X147666168Y-56294813D01*
X147664553Y-56315098D01*
X147634547Y-56359720D01*
X147575828Y-56429170D01*
X147488070Y-56523941D01*
X147368236Y-56658881D01*
X147278728Y-56781469D01*
X147223279Y-56888424D01*
X147201481Y-56980805D01*
X147212929Y-57059669D01*
X147257218Y-57126074D01*
X147283074Y-57149067D01*
X147340143Y-57179659D01*
X147418535Y-57195791D01*
X147572122Y-57203037D01*
X147741423Y-57186577D01*
X147894091Y-57145796D01*
X147908303Y-57140642D01*
X147934935Y-57130649D01*
X147952975Y-57118624D01*
X147963482Y-57098406D01*
X147967514Y-57063829D01*
X147966128Y-57008730D01*
X147960383Y-56926947D01*
X147959680Y-56918035D01*
X148334903Y-56918035D01*
X148335067Y-56981400D01*
X148338438Y-57056588D01*
X148347904Y-57115560D01*
X148366078Y-57172208D01*
X148395576Y-57240420D01*
X148400151Y-57250322D01*
X148435849Y-57319358D01*
X148475041Y-57374798D01*
X148527407Y-57428400D01*
X148602629Y-57491923D01*
X148637819Y-57520353D01*
X148699465Y-57570570D01*
X148746856Y-57609714D01*
X148771863Y-57631099D01*
X148779900Y-57637734D01*
X148816927Y-57665872D01*
X148876573Y-57709894D01*
X148952653Y-57765256D01*
X149038982Y-57827411D01*
X149102827Y-57872584D01*
X149230511Y-57958163D01*
X149342991Y-58025340D01*
X149449793Y-58079576D01*
X149560439Y-58126329D01*
X149583944Y-58132715D01*
X149654926Y-58140495D01*
X149752156Y-58142325D01*
X149867481Y-58138555D01*
X149992751Y-58129534D01*
X150119811Y-58115613D01*
X150240511Y-58097141D01*
X150340059Y-58081855D01*
X150449976Y-58069366D01*
X150562471Y-58060098D01*
X150670646Y-58054312D01*
X150767604Y-58052270D01*
X150846445Y-58054235D01*
X150900272Y-58060469D01*
X150922185Y-58071234D01*
X150926434Y-58086374D01*
X150979798Y-58263412D01*
X151041867Y-58449305D01*
X151110236Y-58638244D01*
X151182499Y-58824417D01*
X151256250Y-59002014D01*
X151329084Y-59165224D01*
X151398593Y-59308236D01*
X151462374Y-59425238D01*
X151518020Y-59510421D01*
X151525397Y-59519784D01*
X151572556Y-59568270D01*
X151618991Y-59602055D01*
X151649843Y-59615596D01*
X151684669Y-59616124D01*
X151729057Y-59593886D01*
X151788066Y-59549647D01*
X151845586Y-59485526D01*
X151903337Y-59396859D01*
X151966262Y-59277045D01*
X151988202Y-59230520D01*
X152029907Y-59134822D01*
X152070909Y-59032816D01*
X152108141Y-58932890D01*
X152138535Y-58843435D01*
X152159020Y-58772838D01*
X152166531Y-58729489D01*
X152162805Y-58708965D01*
X152143304Y-58693568D01*
X152119348Y-58710328D01*
X152108010Y-58720463D01*
X152066807Y-58745430D01*
X152006353Y-58776908D01*
X151937124Y-58809966D01*
X151869597Y-58839673D01*
X151814249Y-58861099D01*
X151781555Y-58869312D01*
X151764050Y-58868016D01*
X151692545Y-58838584D01*
X151616605Y-58770367D01*
X151536255Y-58663394D01*
X151451524Y-58517693D01*
X151427767Y-58474644D01*
X151376158Y-58388762D01*
X151325819Y-58312539D01*
X151312837Y-58294022D01*
X151252542Y-58200126D01*
X151218766Y-58127745D01*
X151210560Y-58071632D01*
X151226977Y-58026539D01*
X151267070Y-57987217D01*
X151273959Y-57982378D01*
X151336057Y-57948700D01*
X151422353Y-57912416D01*
X151520720Y-57878227D01*
X151619033Y-57850831D01*
X151661736Y-57840831D01*
X151747939Y-57821093D01*
X151851317Y-57797759D01*
X151960812Y-57773297D01*
X152065366Y-57750173D01*
X152153919Y-57730853D01*
X152215415Y-57717804D01*
X152221803Y-57716466D01*
X152294603Y-57698803D01*
X152362066Y-57679134D01*
X152429391Y-57657609D01*
X152498941Y-57636431D01*
X152502729Y-57635312D01*
X152556044Y-57618341D01*
X153300634Y-57618341D01*
X153302804Y-57624428D01*
X153326313Y-57657092D01*
X153372577Y-57711398D01*
X153437743Y-57783406D01*
X153517960Y-57869177D01*
X153609374Y-57964771D01*
X153708133Y-58066250D01*
X153810385Y-58169674D01*
X153912277Y-58271104D01*
X154009957Y-58366599D01*
X154099573Y-58452222D01*
X154177272Y-58524032D01*
X154239202Y-58578091D01*
X154260445Y-58595811D01*
X154316343Y-58643028D01*
X154357450Y-58678623D01*
X154376077Y-58695975D01*
X154381869Y-58701004D01*
X154414629Y-58722080D01*
X154463778Y-58749706D01*
X154484531Y-58760182D01*
X154538078Y-58782386D01*
X154575419Y-58791231D01*
X154604686Y-58782562D01*
X154653451Y-58741731D01*
X154705888Y-58672005D01*
X154757645Y-58578465D01*
X154761169Y-58571145D01*
X154796623Y-58496642D01*
X154822219Y-58439336D01*
X154843344Y-58385605D01*
X154865386Y-58321829D01*
X154893733Y-58234385D01*
X154897120Y-58223822D01*
X154929842Y-58121279D01*
X154953097Y-58046529D01*
X154969266Y-57990943D01*
X154980731Y-57945895D01*
X154989875Y-57902757D01*
X154999081Y-57852903D01*
X155006895Y-57810650D01*
X155020638Y-57741599D01*
X155031761Y-57691711D01*
X155036030Y-57666037D01*
X155026475Y-57640274D01*
X154994363Y-57644524D01*
X154940514Y-57678137D01*
X154865748Y-57740465D01*
X154770886Y-57830858D01*
X154656748Y-57948668D01*
X154524155Y-58093245D01*
X154485009Y-58136033D01*
X154424994Y-58198564D01*
X154374581Y-58247518D01*
X154341777Y-58274919D01*
X154341000Y-58275427D01*
X154317573Y-58288546D01*
X154296479Y-58289839D01*
X154270338Y-58275239D01*
X154231772Y-58240680D01*
X154173405Y-58182092D01*
X154083759Y-58088821D01*
X153966783Y-57958243D01*
X153857909Y-57824288D01*
X153838953Y-57800151D01*
X153802415Y-57755079D01*
X153778714Y-57727814D01*
X153778147Y-57727225D01*
X153755917Y-57700441D01*
X153718817Y-57652481D01*
X153674564Y-57593314D01*
X153671830Y-57589616D01*
X153626979Y-57532608D01*
X153588263Y-57489499D01*
X153563795Y-57469370D01*
X153558782Y-57468726D01*
X153524331Y-57478397D01*
X153472234Y-57502221D01*
X153413153Y-57534164D01*
X153357751Y-57568189D01*
X153316691Y-57598260D01*
X153300634Y-57618341D01*
X152556044Y-57618341D01*
X152560700Y-57616859D01*
X152606485Y-57600240D01*
X152738540Y-57544797D01*
X152903405Y-57470994D01*
X153048964Y-57398785D01*
X153185897Y-57322454D01*
X153324887Y-57236285D01*
X153476616Y-57134560D01*
X153647146Y-57005852D01*
X153832231Y-56832308D01*
X153991346Y-56639080D01*
X154127418Y-56421992D01*
X154243372Y-56176870D01*
X154342134Y-55899539D01*
X154348957Y-55877400D01*
X154390120Y-55739450D01*
X154422628Y-55619164D01*
X154448216Y-55507090D01*
X154468617Y-55393780D01*
X154485566Y-55269782D01*
X154500798Y-55125646D01*
X154516047Y-54951923D01*
X154527914Y-54777633D01*
X154537291Y-54338234D01*
X154519351Y-53879772D01*
X154474260Y-53408385D01*
X154465746Y-53341657D01*
X154452262Y-53252240D01*
X154436368Y-53175691D01*
X154415123Y-53102410D01*
X154385590Y-53022793D01*
X154344829Y-52927241D01*
X154289899Y-52806150D01*
X154276752Y-52777420D01*
X154247543Y-52712543D01*
X154227251Y-52665935D01*
X154219649Y-52646185D01*
X154212345Y-52626572D01*
X154191783Y-52577485D01*
X154160751Y-52505310D01*
X154122037Y-52416378D01*
X154078432Y-52317024D01*
X154032725Y-52213582D01*
X153987705Y-52112384D01*
X153946163Y-52019766D01*
X153910886Y-51942060D01*
X153884666Y-51885600D01*
X153875759Y-51866158D01*
X153856011Y-51816628D01*
X153848132Y-51786051D01*
X153838285Y-51762199D01*
X153808946Y-51728005D01*
X153797623Y-51718341D01*
X153762937Y-51703046D01*
X153720035Y-51715208D01*
X153678366Y-51729587D01*
X153627235Y-51737596D01*
X153624361Y-51737637D01*
X153581128Y-51742318D01*
X153514450Y-51753248D01*
X153437509Y-51768295D01*
X153352378Y-51785800D01*
X153259188Y-51804165D01*
X153183313Y-51818329D01*
X153146726Y-51825001D01*
X153059924Y-51841781D01*
X152983888Y-51857565D01*
X152946116Y-51865495D01*
X152861508Y-51881891D01*
X152778576Y-51896608D01*
X152672252Y-51914371D01*
X152577717Y-51930392D01*
X152503395Y-51943395D01*
X152439455Y-51955147D01*
X152376068Y-51967413D01*
X152303406Y-51981959D01*
X152288534Y-51984941D01*
X152194089Y-52003070D01*
X152101774Y-52019653D01*
X152029656Y-52031424D01*
X152019866Y-52032899D01*
X151943060Y-52045463D01*
X151849032Y-52062010D01*
X151755907Y-52079366D01*
X151622445Y-52104126D01*
X151486327Y-52126069D01*
X151360315Y-52141605D01*
X151229330Y-52152547D01*
X151078294Y-52160702D01*
X151072032Y-52160980D01*
X150969215Y-52165205D01*
X150898338Y-52166685D01*
X150852629Y-52164688D01*
X150825319Y-52158485D01*
X150809637Y-52147344D01*
X150798813Y-52130534D01*
X150797256Y-52127590D01*
X150786545Y-52095316D01*
X150801831Y-52081114D01*
X150828792Y-52072476D01*
X150889928Y-52052106D01*
X150959194Y-52028456D01*
X151021501Y-52006699D01*
X151061758Y-51992007D01*
X151074565Y-51987351D01*
X151126460Y-51970733D01*
X151188856Y-51952707D01*
X151204104Y-51948518D01*
X151286329Y-51925496D01*
X151364837Y-51902983D01*
X151382322Y-51897946D01*
X151460217Y-51876499D01*
X151531042Y-51858237D01*
X151565102Y-51849649D01*
X151641242Y-51829463D01*
X151718519Y-51808042D01*
X151765802Y-51795387D01*
X151824410Y-51782085D01*
X151860547Y-51776923D01*
X151881293Y-51774577D01*
X151927266Y-51759214D01*
X151932433Y-51756861D01*
X151974328Y-51743189D01*
X152039993Y-51725800D01*
X152117647Y-51707869D01*
X152135769Y-51703924D01*
X152212849Y-51686094D01*
X152276062Y-51669890D01*
X152313182Y-51658406D01*
X152314370Y-51657933D01*
X152361960Y-51644086D01*
X152420727Y-51632739D01*
X152464858Y-51625039D01*
X152538250Y-51609865D01*
X152616262Y-51591880D01*
X152678994Y-51576925D01*
X152763474Y-51557648D01*
X152831350Y-51543080D01*
X152895704Y-51529698D01*
X152980029Y-51511663D01*
X153065992Y-51492897D01*
X153138866Y-51476928D01*
X153251715Y-51453096D01*
X153341754Y-51435696D01*
X153418886Y-51422869D01*
X153493013Y-51412757D01*
X153531934Y-51406317D01*
X153583328Y-51391054D01*
X153607471Y-51373645D01*
X153607741Y-51350480D01*
X153597999Y-51298976D01*
X153580400Y-51233727D01*
X153558388Y-51167228D01*
X153535401Y-51111974D01*
X153521387Y-51073886D01*
X153507237Y-51020799D01*
X153487859Y-50971225D01*
X153449820Y-50945819D01*
X153393282Y-50954421D01*
X153356245Y-50967035D01*
X153263779Y-50991015D01*
X153167927Y-51008290D01*
X153088524Y-51014923D01*
X153054048Y-51015786D01*
X153010424Y-51024231D01*
X152999621Y-51044601D01*
X153017799Y-51080453D01*
X153023388Y-51089447D01*
X153042769Y-51152856D01*
X153043727Y-51226881D01*
X153025510Y-51291030D01*
X153013700Y-51305889D01*
X152970626Y-51338947D01*
X152913077Y-51369380D01*
X152876912Y-51383237D01*
X152834751Y-51394242D01*
X152782613Y-51401660D01*
X152713217Y-51406185D01*
X152619284Y-51408510D01*
X152493532Y-51409328D01*
X152462562Y-51409351D01*
X152328164Y-51407916D01*
X152225346Y-51403168D01*
X152147875Y-51394108D01*
X152089518Y-51379736D01*
X152044042Y-51359054D01*
X152005215Y-51331062D01*
X151989799Y-51315295D01*
X151972989Y-51266928D01*
X151992523Y-51208837D01*
X152048731Y-51139568D01*
X152053813Y-51134467D01*
X152134279Y-51062876D01*
X152198397Y-51024494D01*
X152245285Y-51019433D01*
X152274063Y-51047806D01*
X152283852Y-51109724D01*
X152285818Y-51149985D01*
X152298340Y-51182693D01*
X152327847Y-51197993D01*
X152361682Y-51204756D01*
X152435732Y-51209626D01*
X152507427Y-51204531D01*
X152558887Y-51190082D01*
X152582927Y-51172986D01*
X152593634Y-51141349D01*
X152569065Y-51102421D01*
X152508294Y-51053709D01*
X152502714Y-51049950D01*
X152452225Y-51019123D01*
X152381914Y-50979560D01*
X152299494Y-50935222D01*
X152212682Y-50890066D01*
X152129193Y-50848053D01*
X152056742Y-50813142D01*
X152003045Y-50789292D01*
X151975817Y-50780462D01*
X151946732Y-50768665D01*
X151911477Y-50729797D01*
X151884186Y-50676252D01*
X151873228Y-50621039D01*
X151873662Y-50607220D01*
X151892746Y-50539857D01*
X151935687Y-50500147D01*
X151996390Y-50491342D01*
X152068763Y-50516693D01*
X152110104Y-50535280D01*
X152154085Y-50545308D01*
X152170048Y-50543787D01*
X152183733Y-50527084D01*
X152181342Y-50483491D01*
X152180473Y-50476265D01*
X152183213Y-50409443D01*
X152427531Y-50409443D01*
X152429105Y-50463920D01*
X152443244Y-50518059D01*
X152475040Y-50593840D01*
X152521596Y-50657520D01*
X152582963Y-50697724D01*
X152604447Y-50705047D01*
X152675901Y-50716326D01*
X152762837Y-50718833D01*
X152849301Y-50712576D01*
X152919341Y-50697563D01*
X152967861Y-50681421D01*
X153005233Y-50669878D01*
X153007488Y-50668572D01*
X152998719Y-50652516D01*
X152963328Y-50623706D01*
X152907465Y-50587334D01*
X152883590Y-50572498D01*
X152758778Y-50472511D01*
X152669050Y-50356153D01*
X152614871Y-50224190D01*
X152596708Y-50077385D01*
X152595698Y-50041935D01*
X152590327Y-49996967D01*
X152581876Y-49979385D01*
X152566048Y-49993872D01*
X152541528Y-50037438D01*
X152513094Y-50101163D01*
X152484454Y-50175985D01*
X152459318Y-50252843D01*
X152441392Y-50322675D01*
X152438361Y-50337665D01*
X152427531Y-50409443D01*
X152183213Y-50409443D01*
X152183484Y-50402841D01*
X152201939Y-50305789D01*
X152233186Y-50194712D01*
X152274574Y-50079211D01*
X152323451Y-49968886D01*
X152339258Y-49936481D01*
X152370970Y-49868181D01*
X152392951Y-49816091D01*
X152401173Y-49789507D01*
X152400669Y-49787299D01*
X152379227Y-49766195D01*
X152332499Y-49735458D01*
X152269187Y-49700930D01*
X152263219Y-49697933D01*
X152193592Y-49662725D01*
X152134469Y-49632423D01*
X152098094Y-49613298D01*
X152088853Y-49608423D01*
X152039570Y-49584647D01*
X151980773Y-49558379D01*
X151972001Y-49554600D01*
X151897398Y-49521488D01*
X151825560Y-49488352D01*
X151805395Y-49479033D01*
X151758969Y-49459589D01*
X151733216Y-49451847D01*
X151717011Y-49447500D01*
X151673145Y-49430746D01*
X151614679Y-49405712D01*
X151468944Y-49344405D01*
X151339108Y-49299994D01*
X151221189Y-49272996D01*
X151104797Y-49261059D01*
X150979539Y-49261828D01*
X150950078Y-49263349D01*
X150839521Y-49272647D01*
X150750196Y-49288607D01*
X150667598Y-49314545D01*
X150577222Y-49353776D01*
X150528241Y-49379367D01*
X150416739Y-49457596D01*
X150309403Y-49563294D01*
X150202774Y-49700164D01*
X150093395Y-49871912D01*
X150069483Y-49913053D01*
X149980589Y-50077649D01*
X149911800Y-50230253D01*
X149862570Y-50376836D01*
X149832349Y-50523370D01*
X149820591Y-50675826D01*
X149826745Y-50840177D01*
X149850265Y-51022393D01*
X149890603Y-51228446D01*
X149947208Y-51464308D01*
X149963363Y-51527798D01*
X149983550Y-51607706D01*
X149998996Y-51669462D01*
X150002982Y-51685291D01*
X150023010Y-51760781D01*
X150044035Y-51835539D01*
X150049075Y-51852924D01*
X150071025Y-51930797D01*
X150090207Y-52001616D01*
X150101154Y-52043063D01*
X150127479Y-52140634D01*
X150153317Y-52233952D01*
X150175545Y-52311829D01*
X150191043Y-52363077D01*
X150195556Y-52377240D01*
X150212145Y-52430497D01*
X150234914Y-52504500D01*
X150260324Y-52587770D01*
X150272335Y-52627049D01*
X150296633Y-52705063D01*
X150316570Y-52767204D01*
X150328713Y-52802693D01*
X150334840Y-52820113D01*
X150352439Y-52872352D01*
X150378936Y-52952141D01*
X150412486Y-53053892D01*
X150451240Y-53172016D01*
X150493352Y-53300923D01*
X150523966Y-53394553D01*
X150564046Y-53516280D01*
X150599570Y-53623195D01*
X150628667Y-53709707D01*
X150649465Y-53770224D01*
X150660093Y-53799154D01*
X150669414Y-53822926D01*
X150689125Y-53879105D01*
X150710806Y-53945693D01*
X150725159Y-53990753D01*
X150745460Y-54052106D01*
X150759690Y-54092231D01*
X150768291Y-54116029D01*
X150787120Y-54172200D01*
X150808366Y-54238770D01*
X150822485Y-54283352D01*
X150843543Y-54347363D01*
X150858910Y-54391112D01*
X150859500Y-54392889D01*
X150864721Y-54429575D01*
X150869252Y-54497789D01*
X150872821Y-54590717D01*
X150875160Y-54701542D01*
X150876000Y-54823450D01*
X150876003Y-54859718D01*
X150875670Y-54990470D01*
X150873590Y-55088470D01*
X150868165Y-55158831D01*
X150857797Y-55206669D01*
X150840891Y-55237097D01*
X150815848Y-55255230D01*
X150781072Y-55266183D01*
X150734964Y-55275068D01*
X150656778Y-55283144D01*
X150602572Y-55270196D01*
X150571944Y-55231785D01*
X150559364Y-55164427D01*
X150558947Y-55158290D01*
X150550871Y-55100709D01*
X150532017Y-55066115D01*
X150494707Y-55039696D01*
X150492405Y-55038420D01*
X150463210Y-55023021D01*
X150433830Y-55010387D01*
X150396657Y-54998314D01*
X150344082Y-54984600D01*
X150268498Y-54967040D01*
X150162297Y-54943433D01*
X150087481Y-54929883D01*
X149975584Y-54916437D01*
X149853601Y-54907426D01*
X149731279Y-54903150D01*
X149618366Y-54903909D01*
X149524610Y-54910006D01*
X149459759Y-54921740D01*
X149430826Y-54930564D01*
X149364287Y-54950343D01*
X149292166Y-54971340D01*
X149231347Y-54989640D01*
X149135747Y-55023746D01*
X149051201Y-55062725D01*
X149015925Y-55080923D01*
X148940312Y-55120917D01*
X148888889Y-55150396D01*
X148853613Y-55174166D01*
X148826441Y-55197034D01*
X148796677Y-55228914D01*
X148783775Y-55251381D01*
X148783798Y-55251721D01*
X148797743Y-55272667D01*
X148832482Y-55311991D01*
X148880764Y-55361465D01*
X148908720Y-55388812D01*
X148951007Y-55426839D01*
X148981743Y-55444183D01*
X149011752Y-55445534D01*
X149051857Y-55435580D01*
X149105724Y-55422490D01*
X149202746Y-55405403D01*
X149311617Y-55391499D01*
X149419821Y-55382049D01*
X149514838Y-55378322D01*
X149584151Y-55381588D01*
X149594254Y-55382869D01*
X149654704Y-55384668D01*
X149689470Y-55375208D01*
X149694122Y-55357166D01*
X149664230Y-55333216D01*
X149634351Y-55302216D01*
X149624576Y-55244503D01*
X149625346Y-55223848D01*
X149635449Y-55186295D01*
X149663536Y-55151800D01*
X149717455Y-55108905D01*
X149728986Y-55100551D01*
X149789507Y-55062891D01*
X149844481Y-55045048D01*
X149912990Y-55040331D01*
X149958615Y-55040716D01*
X149996808Y-55045653D01*
X150012564Y-55059800D01*
X150015646Y-55087659D01*
X150013842Y-55104432D01*
X149995839Y-55162239D01*
X149964204Y-55231261D01*
X149925993Y-55297204D01*
X149888261Y-55345771D01*
X149885271Y-55348561D01*
X149841060Y-55374467D01*
X149783884Y-55392694D01*
X149712566Y-55406583D01*
X149793423Y-55408830D01*
X149825454Y-55411245D01*
X149902370Y-55423432D01*
X149979182Y-55441906D01*
X150016916Y-55452934D01*
X150096201Y-55475813D01*
X150162297Y-55494548D01*
X150177795Y-55499061D01*
X150252201Y-55523761D01*
X150296215Y-55540552D01*
X150324823Y-55551466D01*
X150409135Y-55586571D01*
X150374717Y-55644792D01*
X150360619Y-55666535D01*
X150332573Y-55697358D01*
X150295477Y-55720616D01*
X150244326Y-55737293D01*
X150174118Y-55748370D01*
X150079849Y-55754830D01*
X149956515Y-55757655D01*
X149799113Y-55757828D01*
X149671848Y-55757756D01*
X149540368Y-55759779D01*
X149433720Y-55764969D01*
X149343963Y-55774198D01*
X149263157Y-55788334D01*
X149183360Y-55808249D01*
X149096631Y-55834812D01*
X149059929Y-55847414D01*
X148873983Y-55934398D01*
X148711014Y-56051441D01*
X148574027Y-56196014D01*
X148466031Y-56365584D01*
X148456154Y-56385222D01*
X148423784Y-56454152D01*
X148401064Y-56509736D01*
X148392411Y-56541430D01*
X148391735Y-56549813D01*
X148381831Y-56595023D01*
X148363939Y-56651770D01*
X148363118Y-56654106D01*
X148348624Y-56719231D01*
X148338797Y-56811084D01*
X148334903Y-56918035D01*
X147959680Y-56918035D01*
X147951337Y-56812314D01*
X147950304Y-56798511D01*
X147946358Y-56689501D01*
X147953171Y-56596762D01*
X147972042Y-56500761D01*
X147984502Y-56450064D01*
X148000931Y-56388925D01*
X148017163Y-56342008D01*
X148038621Y-56294526D01*
X148070729Y-56231693D01*
X148104661Y-56166835D01*
X148131649Y-56116658D01*
X148148154Y-56088494D01*
X148158063Y-56075385D01*
X148171297Y-56060037D01*
X148202809Y-56021797D01*
X148244382Y-55970482D01*
X148333101Y-55868779D01*
X148437917Y-55765323D01*
X148544152Y-55675371D01*
X148644198Y-55605322D01*
X148730446Y-55561576D01*
X148748761Y-55553803D01*
X148753649Y-55540552D01*
X148729928Y-55514097D01*
X148720763Y-55505324D01*
X148677496Y-55466408D01*
X148626828Y-55423207D01*
X148515388Y-55328176D01*
X148360926Y-55189995D01*
X148191895Y-55032969D01*
X148014345Y-54862983D01*
X147834328Y-54685928D01*
X147657897Y-54507690D01*
X147491103Y-54334158D01*
X147339999Y-54171220D01*
X147322942Y-54151474D01*
X147279784Y-54097461D01*
X147227347Y-54028453D01*
X147171153Y-53952110D01*
X147116727Y-53876089D01*
X147069593Y-53808049D01*
X147035274Y-53755650D01*
X147019294Y-53726552D01*
X147013354Y-53719730D01*
X146975686Y-53708531D01*
X146911596Y-53705167D01*
X146812373Y-53720660D01*
X146726038Y-53768128D01*
X146650323Y-53850976D01*
X146627853Y-53894245D01*
X146608182Y-53983883D01*
X146607901Y-54089870D01*
X146324994Y-54089870D01*
X146311196Y-54035932D01*
X146306401Y-53913171D01*
X146332457Y-53806869D01*
X146389082Y-53715813D01*
X146407582Y-53695375D01*
X146452263Y-53655336D01*
X146509582Y-53617359D01*
X146587632Y-53576458D01*
X146694505Y-53527648D01*
X146759208Y-53508109D01*
X146862824Y-53497645D01*
X146971314Y-53504617D01*
X147067559Y-53528963D01*
X147114444Y-53549568D01*
X147196260Y-53595982D01*
X147285145Y-53659661D01*
X147383720Y-53743019D01*
X147494604Y-53848473D01*
X147620418Y-53978437D01*
X147763782Y-54135326D01*
X147927315Y-54321557D01*
X147940802Y-54336947D01*
X147984300Y-54385471D01*
X148032482Y-54438188D01*
X148056301Y-54464582D01*
X148087278Y-54501503D01*
X148099402Y-54519999D01*
X148110557Y-54535058D01*
X148143911Y-54572767D01*
X148194126Y-54626994D01*
X148255805Y-54691812D01*
X148309808Y-54748873D01*
X148373265Y-54818424D01*
X148424637Y-54877496D01*
X148456229Y-54917425D01*
X148463963Y-54928153D01*
X148498632Y-54968933D01*
X148525595Y-54990428D01*
X148530359Y-54990787D01*
X148562767Y-54977024D01*
X148612960Y-54944066D01*
X148672246Y-54897426D01*
X148740538Y-54844340D01*
X148871350Y-54761220D01*
X149008867Y-54693026D01*
X149137937Y-54647876D01*
X149186154Y-54636794D01*
X149329571Y-54614638D01*
X149490670Y-54601932D01*
X149654693Y-54599548D01*
X149806883Y-54608359D01*
X149854681Y-54613608D01*
X149986071Y-54630743D01*
X150111170Y-54650687D01*
X150223453Y-54672120D01*
X150316392Y-54693718D01*
X150383461Y-54714162D01*
X150418135Y-54732129D01*
X150434153Y-54741426D01*
X150471984Y-54746597D01*
X150507998Y-54740137D01*
X150524037Y-54723523D01*
X150523668Y-54716625D01*
X150517991Y-54673429D01*
X150507126Y-54607677D01*
X150493230Y-54531369D01*
X150478460Y-54456502D01*
X150464976Y-54395077D01*
X150427134Y-54238798D01*
X150393354Y-54105263D01*
X150362946Y-53993791D01*
X150333411Y-53896143D01*
X150302252Y-53804083D01*
X150266971Y-53709371D01*
X150225072Y-53603770D01*
X150207118Y-53560412D01*
X150159063Y-53450703D01*
X150108000Y-53340933D01*
X150062338Y-53249412D01*
X149946276Y-53005093D01*
X149837319Y-52724112D01*
X149746743Y-52431462D01*
X149745224Y-52425861D01*
X149724418Y-52349711D01*
X149703838Y-52275154D01*
X149681304Y-52185057D01*
X149654300Y-52060794D01*
X149625461Y-51914816D01*
X149596381Y-51755858D01*
X149568656Y-51592656D01*
X149543881Y-51433946D01*
X149523652Y-51288462D01*
X149520244Y-51259011D01*
X149511829Y-51158436D01*
X149504762Y-51033709D01*
X149499133Y-50891850D01*
X149495030Y-50739876D01*
X149492542Y-50584807D01*
X149491759Y-50433661D01*
X149492768Y-50293458D01*
X149495660Y-50171217D01*
X149500523Y-50073955D01*
X149507445Y-50008693D01*
X149527268Y-49903754D01*
X149554636Y-49798253D01*
X149587936Y-49715829D01*
X149630968Y-49647526D01*
X149687531Y-49584391D01*
X149784675Y-49495919D01*
X149914653Y-49390527D01*
X150062102Y-49281775D01*
X150070709Y-49275688D01*
X150114652Y-49244061D01*
X150142743Y-49222977D01*
X150160167Y-49210995D01*
X150212404Y-49180880D01*
X150282649Y-49143974D01*
X150359586Y-49105963D01*
X150431898Y-49072533D01*
X150488268Y-49049370D01*
X150656419Y-48998883D01*
X150896814Y-48960962D01*
X151140652Y-48961553D01*
X151386319Y-49000616D01*
X151632200Y-49078109D01*
X151645921Y-49083875D01*
X151700268Y-49108693D01*
X151782158Y-49147578D01*
X151886463Y-49198038D01*
X152008056Y-49257584D01*
X152141808Y-49323725D01*
X152282591Y-49393971D01*
X152838606Y-49672652D01*
X153025624Y-49679914D01*
X153065846Y-49681861D01*
X153154812Y-49688689D01*
X153230933Y-49697744D01*
X153281081Y-49707602D01*
X153437686Y-49770260D01*
X153572965Y-49860532D01*
X153678684Y-49975249D01*
X153753525Y-50113280D01*
X153763363Y-50141415D01*
X153787132Y-50246189D01*
X153802166Y-50373096D01*
X153807820Y-50510055D01*
X153803447Y-50644982D01*
X153800509Y-50668572D01*
X153788402Y-50765795D01*
X153784145Y-50790315D01*
X153776858Y-50868136D01*
X153782421Y-50942525D01*
X153803084Y-51020322D01*
X153841099Y-51108368D01*
X153898716Y-51213505D01*
X153978187Y-51342572D01*
X154008452Y-51391954D01*
X154033892Y-51437657D01*
X154043667Y-51461282D01*
X154043856Y-51462845D01*
X154059488Y-51487711D01*
X154092551Y-51522923D01*
X154096148Y-51526365D01*
X154128250Y-51564114D01*
X154141435Y-51592911D01*
X154144809Y-51608881D01*
X154161499Y-51654028D01*
X154187458Y-51711620D01*
X154205865Y-51749712D01*
X154253593Y-51849819D01*
X154311125Y-51971767D01*
X154374665Y-52107393D01*
X154440413Y-52248535D01*
X154504575Y-52387029D01*
X154563351Y-52514714D01*
X154612946Y-52623425D01*
X154649561Y-52705000D01*
X154667922Y-52746390D01*
X154729038Y-52882677D01*
X154792173Y-53021587D01*
X154795551Y-53039405D01*
X154799799Y-53096541D01*
X154803546Y-53189968D01*
X154806762Y-53318075D01*
X154809415Y-53479250D01*
X154811474Y-53671878D01*
X154812909Y-53894348D01*
X154813688Y-54145048D01*
X154813902Y-54301404D01*
X154813902Y-54338234D01*
X154813901Y-54529936D01*
X154813272Y-54725549D01*
G37*
%TD*%
M02*
