%TF.GenerationSoftware,KiCad,Pcbnew,6.0.8-f2edbf62ab~116~ubuntu20.04.1*%
%TF.CreationDate,2022-10-13T01:59:19+02:00*%
%TF.ProjectId,Louie_for_Pico,4c6f7569-655f-4666-9f72-5f5069636f2e,rev?*%
%TF.SameCoordinates,Original*%
%TF.FileFunction,Soldermask,Bot*%
%TF.FilePolarity,Negative*%
%FSLAX46Y46*%
G04 Gerber Fmt 4.6, Leading zero omitted, Abs format (unit mm)*
G04 Created by KiCad (PCBNEW 6.0.8-f2edbf62ab~116~ubuntu20.04.1) date 2022-10-13 01:59:19*
%MOMM*%
%LPD*%
G01*
G04 APERTURE LIST*
G04 Aperture macros list*
%AMRoundRect*
0 Rectangle with rounded corners*
0 $1 Rounding radius*
0 $2 $3 $4 $5 $6 $7 $8 $9 X,Y pos of 4 corners*
0 Add a 4 corners polygon primitive as box body*
4,1,4,$2,$3,$4,$5,$6,$7,$8,$9,$2,$3,0*
0 Add four circle primitives for the rounded corners*
1,1,$1+$1,$2,$3*
1,1,$1+$1,$4,$5*
1,1,$1+$1,$6,$7*
1,1,$1+$1,$8,$9*
0 Add four rect primitives between the rounded corners*
20,1,$1+$1,$2,$3,$4,$5,0*
20,1,$1+$1,$4,$5,$6,$7,0*
20,1,$1+$1,$6,$7,$8,$9,0*
20,1,$1+$1,$8,$9,$2,$3,0*%
G04 Aperture macros list end*
%ADD10C,1.700000*%
%ADD11R,1.700000X1.700000*%
%ADD12O,1.700000X1.700000*%
%ADD13C,7.500000*%
%ADD14C,1.575000*%
%ADD15C,4.755000*%
%ADD16RoundRect,0.250000X0.845000X-0.620000X0.845000X0.620000X-0.845000X0.620000X-0.845000X-0.620000X0*%
%ADD17O,2.190000X1.740000*%
%ADD18O,1.500000X1.500000*%
%ADD19O,1.800000X1.800000*%
G04 APERTURE END LIST*
D10*
%TO.C,SW3*%
X136040000Y-106970000D03*
D11*
X129540000Y-106970000D03*
D10*
X136040000Y-111470000D03*
X129540000Y-111470000D03*
%TD*%
D11*
%TO.C,Brd1*%
X121450000Y-62115000D03*
D12*
X121450000Y-59575000D03*
X121450000Y-57035000D03*
X121450000Y-54495000D03*
%TD*%
D13*
%TO.C,*%
X167640000Y-50165000D03*
%TD*%
%TO.C,REF\u002A\u002A*%
X86360000Y-50165000D03*
%TD*%
D14*
%TO.C,U3*%
X146602000Y-85009000D03*
X157701000Y-85009000D03*
X146602000Y-93309000D03*
X158102000Y-92609000D03*
X152152000Y-82309000D03*
D15*
X146602000Y-89159000D03*
X157701000Y-89159000D03*
%TD*%
D13*
%TO.C,REF\u002A\u002A*%
X86360000Y-110490000D03*
%TD*%
D16*
%TO.C,J1*%
X85090000Y-70485000D03*
D17*
X85090000Y-67945000D03*
X85090000Y-65405000D03*
%TD*%
D11*
%TO.C,SW5*%
X153595000Y-106970000D03*
D10*
X160095000Y-106970000D03*
X153595000Y-111470000D03*
X160095000Y-111470000D03*
%TD*%
D18*
%TO.C,U2*%
X90790000Y-90055000D03*
X90790000Y-85205000D03*
D19*
X87760000Y-84905000D03*
X87760000Y-90355000D03*
D12*
X87630000Y-96520000D03*
X90170000Y-96520000D03*
D11*
X92710000Y-96520000D03*
D12*
X95250000Y-96520000D03*
X97790000Y-96520000D03*
X100330000Y-96520000D03*
X102870000Y-96520000D03*
D11*
X105410000Y-96520000D03*
D12*
X107950000Y-96520000D03*
X110490000Y-96520000D03*
X113030000Y-96520000D03*
X115570000Y-96520000D03*
D11*
X118110000Y-96520000D03*
D12*
X120650000Y-96520000D03*
X123190000Y-96520000D03*
X125730000Y-96520000D03*
X128270000Y-96520000D03*
D11*
X130810000Y-96520000D03*
D12*
X133350000Y-96520000D03*
X135890000Y-96520000D03*
X135890000Y-78740000D03*
X133350000Y-78740000D03*
D11*
X130810000Y-78740000D03*
D12*
X128270000Y-78740000D03*
X125730000Y-78740000D03*
X123190000Y-78740000D03*
X120650000Y-78740000D03*
D11*
X118110000Y-78740000D03*
D12*
X115570000Y-78740000D03*
X113030000Y-78740000D03*
X110490000Y-78740000D03*
X107950000Y-78740000D03*
D11*
X105410000Y-78740000D03*
D12*
X102870000Y-78740000D03*
X100330000Y-78740000D03*
X97790000Y-78740000D03*
X95250000Y-78740000D03*
D11*
X92710000Y-78740000D03*
D12*
X90170000Y-78740000D03*
X87630000Y-78740000D03*
X135660000Y-90170000D03*
D11*
X135660000Y-87630000D03*
D12*
X135660000Y-85090000D03*
%TD*%
D11*
%TO.C,SW4*%
X141276000Y-106970000D03*
D10*
X147776000Y-106970000D03*
X147776000Y-111470000D03*
X141276000Y-111470000D03*
%TD*%
D13*
%TO.C,*%
X167640000Y-110490000D03*
%TD*%
D16*
%TO.C,M1*%
X85110000Y-60325000D03*
D17*
X85110000Y-57785000D03*
%TD*%
D11*
%TO.C,SW2*%
X94540000Y-47915000D03*
D10*
X101040000Y-47915000D03*
X94540000Y-52415000D03*
X101040000Y-52415000D03*
%TD*%
M02*
